<svg width="28" height="33" viewBox="0 0 28 33" fill="none" xmlns="http://www.w3.org/2000/svg">
<path fill-rule="evenodd" clip-rule="evenodd" d="M20.4784 9.19947C22.2439 9.07568 23.9712 9.76612 25.188 11.082C26.3287 12.3157 26.9722 13.9392 27 15.6285L26.9954 16.0194L26.952 17.1098C26.8591 19.4397 26.493 21.7487 25.8624 23.9872L25.6135 24.8232L24.9944 26.7961C24.232 29.2256 22.3387 31.1071 19.9443 31.8146C18.9277 32.115 17.5425 32.0503 15.7886 31.6205L15.3011 31.4942C14.4486 31.2619 13.5515 31.2619 12.699 31.4943C10.7131 32.0355 9.16561 32.1423 8.05663 31.8146C5.66226 31.1071 3.76892 29.2256 3.00655 26.7961L2.38742 24.8232C1.60368 22.3256 1.15345 19.731 1.04898 17.1098L1.00551 16.0194C0.93265 14.1913 1.58451 12.4106 2.81298 11.082C4.02972 9.76612 5.75699 9.07568 7.52259 9.19947L8.56487 9.27255C10.0635 9.37762 11.8757 10.5038 14.0016 12.651C15.9693 10.6047 17.6493 9.49159 19.0418 9.31178L19.4361 9.27255L20.4784 9.19947ZM14.0005 11.3601V6.97329C14.0005 4.50407 12.2984 2.3781 9.93377 1.89385L5.56912 1V1.93342C5.56912 4.40265 7.27121 6.52861 9.63582 7.01286L14.0005 7.90671" fill="#fed6ff"/>
<path d="M19.0593 4.45336L18.7997 4.54196C15.9336 5.5202 14.0005 8.2666 14.0005 11.3601V6.97329C14.0005 4.50407 12.2984 2.3781 9.93377 1.89385L5.56912 1V1.93342C5.56912 4.40265 7.27121 6.52861 9.63582 7.01286L14.0005 7.90671M20.4784 9.19947C22.2439 9.07568 23.9712 9.76612 25.188 11.082C26.3287 12.3157 26.9722 13.9392 27 15.6285L26.9954 16.0194L26.952 17.1098C26.8591 19.4397 26.493 21.7487 25.8624 23.9872L25.6135 24.8232L24.9944 26.7961C24.232 29.2256 22.3387 31.1071 19.9443 31.8146C18.9277 32.115 17.5425 32.0503 15.7886 31.6205L15.3011 31.4942C14.4486 31.2619 13.5515 31.2619 12.699 31.4943C10.7131 32.0355 9.16561 32.1423 8.05663 31.8146C5.66226 31.1071 3.76892 29.2256 3.00655 26.7961L2.38742 24.8232C1.60368 22.3256 1.15345 19.731 1.04898 17.1098L1.00551 16.0194C0.93265 14.1913 1.58451 12.4106 2.81298 11.082C4.02972 9.76612 5.75699 9.07568 7.52259 9.19947L8.56487 9.27255C10.0635 9.37762 11.8757 10.5038 14.0016 12.651C15.9693 10.6047 17.6493 9.49159 19.0418 9.31178L19.4361 9.27255L20.4784 9.19947Z" stroke="#8D8D8D" stroke-linecap="round"/>
</svg>
