<svg width="34" height="30" viewBox="0 0 34 30" fill="none" xmlns="http://www.w3.org/2000/svg">
<path fill-rule="evenodd" clip-rule="evenodd" d="M10.2365 2.21112L11.405 1.87725C15.2509 0.778437 19.3181 0.710669 23.1984 1.68075L24.7704 2.07375C28.4354 2.99 31.3329 5.79246 32.3707 9.42489L32.8073 10.9529C33.6116 13.7678 33.458 16.7702 32.3707 19.4884L32.2507 19.7883C31.3529 22.0328 29.2371 23.5397 26.844 23.6721L26.5003 23.6815C23.786 23.6815 21.1524 24.6053 19.0329 26.301L18.114 27.0361C15.5326 29.1012 12.0238 29.5775 8.98526 28.2753L8.05053 27.8747C4.41475 26.3165 1.87859 22.9464 1.38795 19.0213L1.10941 16.793C0.716437 13.6492 1.3887 10.4644 3.01876 7.74764C4.6353 5.05341 7.2154 3.07429 10.2365 2.21112ZM23.1984 1.68075L24.7704 2.07375C28.4354 2.99 31.3329 5.79246 32.3707 9.42489L32.8073 10.9529C32.9121 11.3196 33.0006 11.6895 33.0729 12.0615C32.9168 12.8766 32.6821 13.6783 32.3707 14.4567L32.2507 14.7566C31.3529 17.0011 29.2371 18.5079 26.844 18.6403L26.5003 18.6498C23.786 18.6498 21.1524 19.5736 19.0329 21.2692L18.114 22.0043C15.5326 24.0695 12.0238 24.5458 8.98526 23.2435L8.05053 22.8429C4.41475 21.2847 1.87859 17.9146 1.38795 13.9896L1.21106 12.5999C1.50839 10.8967 2.11702 9.25054 3.01876 7.74764C4.6353 5.05341 7.2154 3.07429 10.2365 2.21112L11.405 1.87725C15.2509 0.778437 19.3181 0.710669 23.1984 1.68075ZM33.1255 12.4533C31.5354 9.17616 28.2129 7.09537 24.5704 7.09537H24.0264C19.7868 7.09537 15.6405 5.85123 12.1013 3.51715L11.0277 2.80906C10.7282 2.61158 10.4233 2.42519 10.1134 2.24997L10.2365 2.21112L11.405 1.87725C13.328 1.32784 15.3062 1.0362 17.2888 1.00316L18.0324 1.0029C19.7674 1.03058 21.5008 1.25634 23.1984 1.68075L24.7704 2.07375C28.4354 2.99 31.3329 5.79246 32.3707 9.42489L32.8073 10.9529C32.9581 11.4807 33.0752 12.0151 33.1588 12.553L33.152 12.5081C33.1432 12.4898 33.1343 12.4715 33.1255 12.4533ZM7.2715 13.0076C7.2715 14.3971 8.77336 15.5235 10.626 15.5235C12.4787 15.5235 13.9805 14.3971 13.9805 13.0076C13.9805 11.6181 12.4787 10.4917 10.626 10.4917C8.77336 10.4917 7.2715 11.6181 7.2715 13.0076Z" fill="#fed6ff"/>
<path fill-rule="evenodd" clip-rule="evenodd" d="M10.2365 2.21112L11.405 1.87725C15.2509 0.778437 19.3181 0.710669 23.1984 1.68075L24.7704 2.07375C28.4354 2.99 31.3329 5.79246 32.3707 9.42489L32.8073 10.9529C33.6116 13.7678 33.458 16.7702 32.3707 19.4884L32.2507 19.7883C31.3529 22.0328 29.2371 23.5397 26.844 23.6721L26.5003 23.6815C23.786 23.6815 21.1524 24.6053 19.0329 26.301L18.114 27.0361C15.5326 29.1012 12.0238 29.5775 8.98526 28.2753L8.05053 27.8747C4.41475 26.3165 1.87859 22.9464 1.38795 19.0213L1.10941 16.793C0.716437 13.6492 1.3887 10.4644 3.01876 7.74764C4.6353 5.05341 7.2154 3.07429 10.2365 2.21112ZM23.1984 1.68075L24.7704 2.07375C28.4354 2.99 31.3329 5.79246 32.3707 9.42489L32.8073 10.9529C32.9121 11.3196 33.0006 11.6895 33.0729 12.0615C32.9168 12.8766 32.6821 13.6783 32.3707 14.4567L32.2507 14.7566C31.3529 17.0011 29.2371 18.5079 26.844 18.6403L26.5003 18.6498C23.786 18.6498 21.1524 19.5736 19.0329 21.2692L18.114 22.0043C15.5326 24.0695 12.0238 24.5458 8.98526 23.2435L8.05053 22.8429C4.41475 21.2847 1.87859 17.9146 1.38795 13.9896L1.21106 12.5999C1.50839 10.8967 2.11702 9.25054 3.01876 7.74764C4.6353 5.05341 7.2154 3.07429 10.2365 2.21112L11.405 1.87725C15.2509 0.778437 19.3181 0.710669 23.1984 1.68075ZM33.1255 12.4533C31.5354 9.17616 28.2129 7.09537 24.5704 7.09537H24.0264C19.7868 7.09537 15.6405 5.85123 12.1013 3.51715L11.0277 2.80906C10.7282 2.61158 10.4233 2.42519 10.1134 2.24997L10.2365 2.21112L11.405 1.87725C13.328 1.32784 15.3062 1.0362 17.2888 1.00316L18.0324 1.0029C19.7674 1.03058 21.5008 1.25634 23.1984 1.68075L24.7704 2.07375C28.4354 2.99 31.3329 5.79246 32.3707 9.42489L32.8073 10.9529C32.9581 11.4807 33.0752 12.0151 33.1588 12.553L33.152 12.5081C33.1432 12.4898 33.1343 12.4715 33.1255 12.4533ZM7.2715 13.0076C7.2715 14.3971 8.77336 15.5235 10.626 15.5235C12.4787 15.5235 13.9805 14.3971 13.9805 13.0076C13.9805 11.6181 12.4787 10.4917 10.626 10.4917C8.77336 10.4917 7.2715 11.6181 7.2715 13.0076Z" stroke="black" stroke-linecap="square"/>
<path fill-rule="evenodd" clip-rule="evenodd" d="M10.2365 2.21112L11.405 1.87725C15.2509 0.778437 19.3181 0.710669 23.1984 1.68075L24.7704 2.07375C28.4354 2.99 31.3329 5.79246 32.3707 9.42489L32.8073 10.9529C33.6116 13.7678 33.458 16.7702 32.3707 19.4884L32.2507 19.7883C31.3529 22.0328 29.2371 23.5397 26.844 23.6721L26.5003 23.6815C23.786 23.6815 21.1524 24.6053 19.0329 26.301L18.114 27.0361C15.5326 29.1012 12.0238 29.5775 8.98526 28.2753L8.05053 27.8747C4.41475 26.3165 1.87859 22.9464 1.38795 19.0213L1.10941 16.793C0.716437 13.6492 1.3887 10.4644 3.01876 7.74764C4.6353 5.05341 7.2154 3.07429 10.2365 2.21112ZM23.1984 1.68075L24.7704 2.07375C28.4354 2.99 31.3329 5.79246 32.3707 9.42489L32.8073 10.9529C32.9121 11.3196 33.0006 11.6895 33.0729 12.0615C32.9168 12.8766 32.6821 13.6783 32.3707 14.4567L32.2507 14.7566C31.3529 17.0011 29.2371 18.5079 26.844 18.6403L26.5003 18.6498C23.786 18.6498 21.1524 19.5736 19.0329 21.2692L18.114 22.0043C15.5326 24.0695 12.0238 24.5458 8.98526 23.2435L8.05053 22.8429C4.41475 21.2847 1.87859 17.9146 1.38795 13.9896L1.21106 12.5999C1.50839 10.8967 2.11702 9.25054 3.01876 7.74764C4.6353 5.05341 7.2154 3.07429 10.2365 2.21112L11.405 1.87725C15.2509 0.778437 19.3181 0.710669 23.1984 1.68075ZM33.1255 12.4533C31.5354 9.17616 28.2129 7.09537 24.5704 7.09537H24.0264C19.7868 7.09537 15.6405 5.85123 12.1013 3.51715L11.0277 2.80906C10.7282 2.61158 10.4233 2.42519 10.1134 2.24997L10.2365 2.21112L11.405 1.87725C13.328 1.32784 15.3062 1.0362 17.2888 1.00316L18.0324 1.0029C19.7674 1.03058 21.5008 1.25634 23.1984 1.68075L24.7704 2.07375C28.4354 2.99 31.3329 5.79246 32.3707 9.42489L32.8073 10.9529C32.9581 11.4807 33.0752 12.0151 33.1588 12.553L33.152 12.5081C33.1432 12.4898 33.1343 12.4715 33.1255 12.4533ZM7.2715 13.0076C7.2715 14.3971 8.77336 15.5235 10.626 15.5235C12.4787 15.5235 13.9805 14.3971 13.9805 13.0076C13.9805 11.6181 12.4787 10.4917 10.626 10.4917C8.77336 10.4917 7.2715 11.6181 7.2715 13.0076Z" stroke="#8D8D8D" stroke-linecap="square"/>
</svg>
