<svg width="33" height="33" viewBox="0 0 33 33" fill="none" xmlns="http://www.w3.org/2000/svg">
<path d="M30.7196 2.28042C32.4268 3.98765 32.4268 6.75562 30.7196 8.46285L8.46285 30.7196C6.75562 32.4268 3.98765 32.4268 2.28042 30.7196C0.573193 29.0123 0.573193 26.2444 2.28042 24.5372L24.5372 2.28042C26.2444 0.573193 29.0123 0.573193 30.7196 2.28042ZM4.07519 22.7906L4.57554 22.2902C4.82694 22.0388 5.08938 21.8035 5.36144 21.5846C6.79561 21.4338 8.10022 21.6767 10.0029 22.316" fill="#DEDEDE"/>
<path d="M18.713 8.1515L19.214 7.65175C19.4658 7.39998 19.7286 7.16439 20.0011 6.94514C21.4352 6.79556 22.7395 7.03848 24.6414 7.67746M13.8335 13.031L14.3345 12.5312C14.5863 12.2795 14.8491 12.0439 15.1216 11.8246C16.5558 11.6751 17.86 11.918 19.7619 12.557M8.95404 17.9105L9.45504 17.4107C9.70679 17.159 9.96962 16.9234 10.2421 16.7041C11.6763 16.5546 12.9806 16.7975 14.8824 17.4365M4.07519 22.7906L4.57554 22.2902C4.82694 22.0388 5.08938 21.8035 5.36144 21.5846C6.79561 21.4338 8.10022 21.6767 10.0029 22.316M30.7196 2.28042C32.4268 3.98765 32.4268 6.75562 30.7196 8.46285L8.46285 30.7196C6.75562 32.4268 3.98765 32.4268 2.28042 30.7196C0.573193 29.0123 0.573193 26.2444 2.28042 24.5372L24.5372 2.28042C26.2444 0.573193 29.0123 0.573193 30.7196 2.28042Z" stroke="black" stroke-linejoin="round"/>
<path d="M18.713 8.1515L19.214 7.65175C19.4658 7.39998 19.7286 7.16439 20.0011 6.94514C21.4352 6.79556 22.7395 7.03848 24.6414 7.67746M13.8335 13.031L14.3345 12.5312C14.5863 12.2795 14.8491 12.0439 15.1216 11.8246C16.5558 11.6751 17.86 11.918 19.7619 12.557M8.95404 17.9105L9.45504 17.4107C9.70679 17.159 9.96962 16.9234 10.2421 16.7041C11.6763 16.5546 12.9806 16.7975 14.8824 17.4365M4.07519 22.7906L4.57554 22.2902C4.82694 22.0388 5.08938 21.8035 5.36144 21.5846C6.79561 21.4338 8.10022 21.6767 10.0029 22.316M30.7196 2.28042C32.4268 3.98765 32.4268 6.75562 30.7196 8.46285L8.46285 30.7196C6.75562 32.4268 3.98765 32.4268 2.28042 30.7196C0.573193 29.0123 0.573193 26.2444 2.28042 24.5372L24.5372 2.28042C26.2444 0.573193 29.0123 0.573193 30.7196 2.28042Z" stroke="#8D8D8D" stroke-linejoin="round"/>
</svg>
