<svg width="30" height="27" viewBox="0 0 30 27" fill="none" xmlns="http://www.w3.org/2000/svg">
<path fill-rule="evenodd" clip-rule="evenodd" d="M1.99668 15.7496L2.4781 16.0987C4.27307 17.4002 5.42979 19.4037 5.65942 21.6089L5.79142 22.8764C5.89715 23.8918 6.80596 24.6292 7.82131 24.5234C7.93016 24.5121 8.03779 24.4911 8.14292 24.4607C9.38588 24.1016 10.2172 22.9331 10.1489 21.6411L9.92228 17.3574C9.80981 15.2312 8.68379 13.2882 6.89496 12.1336L6.47418 11.862C5.03399 10.9324 3.15416 11.0594 1.85215 12.1744C0.896343 12.9929 0.785026 14.4312 1.60352 15.387C1.71989 15.5229 1.85185 15.6446 1.99668 15.7496ZM3.2961 14.483C5.59436 16.2389 7.09611 18.84 7.46763 21.7083L3.2961 14.483Z" fill="#DEDEDE"/>
<path d="M3.2961 14.483C5.59436 16.2389 7.09611 18.84 7.46763 21.7083M1.99668 15.7496L2.4781 16.0987C4.27307 17.4002 5.42979 19.4037 5.65942 21.6089L5.79142 22.8764C5.89715 23.8918 6.80596 24.6292 7.82131 24.5234C7.93016 24.5121 8.03779 24.4911 8.14292 24.4607C9.38588 24.1016 10.2172 22.9331 10.1489 21.6411L9.92228 17.3574C9.80981 15.2312 8.68379 13.2882 6.89496 12.1336L6.47418 11.862C5.03399 10.9324 3.15416 11.0594 1.85215 12.1744C0.896342 12.9929 0.785026 14.4312 1.60352 15.387C1.71989 15.5229 1.85185 15.6446 1.99668 15.7496Z" stroke="black" stroke-linecap="round"/>
<path d="M3.2961 14.483C5.59436 16.2389 7.09611 18.84 7.46763 21.7083M1.99668 15.7496L2.4781 16.0987C4.27307 17.4002 5.42979 19.4037 5.65942 21.6089L5.79142 22.8764C5.89715 23.8918 6.80596 24.6292 7.82131 24.5234C7.93016 24.5121 8.03779 24.4911 8.14292 24.4607C9.38588 24.1016 10.2172 22.9331 10.1489 21.6411L9.92228 17.3574C9.80981 15.2312 8.68379 13.2882 6.89496 12.1336L6.47418 11.862C5.03399 10.9324 3.15416 11.0594 1.85215 12.1744C0.896342 12.9929 0.785026 14.4312 1.60352 15.387C1.71989 15.5229 1.85185 15.6446 1.99668 15.7496Z" stroke="#8D8D8D" stroke-linecap="round"/>
<path fill-rule="evenodd" clip-rule="evenodd" d="M18.9826 4.87958L18.6079 5.34135C17.211 7.06305 16.6122 9.29766 16.9612 11.4872L17.1617 12.7457C17.3224 13.7538 16.6354 14.7013 15.6273 14.862C15.5192 14.8792 15.4098 14.8868 15.3004 14.8846C14.0069 14.8595 12.9014 13.9459 12.633 12.6802L11.7432 8.48382C11.3015 6.40101 11.8863 4.23278 13.3153 2.6545L13.6515 2.28325C14.802 1.01257 16.6506 0.648756 18.1969 1.38873C19.3319 1.93195 19.8117 3.29249 19.2685 4.42757C19.1913 4.58894 19.0953 4.74066 18.9826 4.87958ZM17.3996 3.99246C15.6342 6.28334 14.8568 9.18449 15.2403 12.0512L17.3996 3.99246Z" fill="#DEDEDE"/>
<path d="M17.3996 3.99246C15.6342 6.28334 14.8568 9.18449 15.2403 12.0512M18.9826 4.87958L18.6079 5.34135C17.211 7.06305 16.6122 9.29766 16.9612 11.4872L17.1617 12.7457C17.3224 13.7538 16.6354 14.7013 15.6273 14.862C15.5192 14.8792 15.4098 14.8868 15.3004 14.8846C14.0069 14.8595 12.9014 13.9459 12.633 12.6802L11.7432 8.48382C11.3015 6.40101 11.8863 4.23278 13.3153 2.6545L13.6515 2.28325C14.802 1.01257 16.6506 0.648756 18.1969 1.38873C19.3319 1.93195 19.8117 3.29249 19.2685 4.42757C19.1913 4.58894 19.0953 4.74066 18.9826 4.87958Z" stroke="black" stroke-linecap="round"/>
<path d="M17.3996 3.99246C15.6342 6.28334 14.8568 9.18449 15.2403 12.0512M18.9826 4.87958L18.6079 5.34135C17.211 7.06305 16.6122 9.29766 16.9612 11.4872L17.1617 12.7457C17.3224 13.7538 16.6354 14.7013 15.6273 14.862C15.5192 14.8792 15.4098 14.8868 15.3004 14.8846C14.0069 14.8595 12.9014 13.9459 12.633 12.6802L11.7432 8.48382C11.3015 6.40101 11.8863 4.23278 13.3153 2.6545L13.6515 2.28325C14.802 1.01257 16.6506 0.648756 18.1969 1.38873C19.3319 1.93195 19.8117 3.29249 19.2685 4.42757C19.1913 4.58894 19.0953 4.74066 18.9826 4.87958Z" stroke="#8D8D8D" stroke-linecap="round"/>
<path fill-rule="evenodd" clip-rule="evenodd" d="M17.0237 19.1836L17.5791 18.9711C19.6497 18.1785 21.2856 16.5426 22.0781 14.472L22.5337 13.2818C22.8986 12.3284 23.9673 11.8514 24.9207 12.2163C25.0229 12.2554 25.1214 12.3035 25.2151 12.3601C26.3228 13.0287 26.8233 14.3726 26.4229 15.6028L25.0954 19.682C24.4364 21.7066 22.8459 23.2919 20.8192 23.9442L20.3425 24.0977C18.7107 24.6229 16.9278 24.0136 15.9588 22.5997C15.2474 21.5617 15.5121 20.1435 16.5501 19.4321C16.6977 19.331 16.8566 19.2476 17.0237 19.1836ZM17.951 20.7434C20.6254 19.6422 22.7492 17.5184 23.8505 14.844L17.951 20.7434Z" fill="#DEDEDE"/>
<path d="M17.951 20.7434C20.6254 19.6422 22.7492 17.5184 23.8505 14.844M17.0237 19.1836L17.5791 18.9711C19.6497 18.1785 21.2856 16.5426 22.0781 14.472L22.5337 13.2818C22.8986 12.3284 23.9673 11.8514 24.9207 12.2163C25.0229 12.2554 25.1214 12.3035 25.2151 12.3601C26.3228 13.0287 26.8233 14.3726 26.4229 15.6028L25.0954 19.682C24.4364 21.7066 22.8459 23.2919 20.8192 23.9442L20.3425 24.0977C18.7107 24.6229 16.9278 24.0136 15.9588 22.5997C15.2474 21.5617 15.5121 20.1435 16.5501 19.4321C16.6977 19.331 16.8566 19.2476 17.0237 19.1836Z" stroke="black" stroke-linecap="round"/>
<path d="M17.951 20.7434C20.6254 19.6422 22.7492 17.5184 23.8505 14.844M17.0237 19.1836L17.5791 18.9711C19.6497 18.1785 21.2856 16.5426 22.0781 14.472L22.5337 13.2818C22.8986 12.3284 23.9673 11.8514 24.9207 12.2163C25.0229 12.2554 25.1214 12.3035 25.2151 12.3601C26.3228 13.0287 26.8233 14.3726 26.4229 15.6028L25.0954 19.682C24.4364 21.7066 22.8459 23.2919 20.8192 23.9442L20.3425 24.0977C18.7107 24.6229 16.9278 24.0136 15.9588 22.5997C15.2474 21.5617 15.5121 20.1435 16.5501 19.4321C16.6977 19.331 16.8566 19.2476 17.0237 19.1836Z" stroke="#8D8D8D" stroke-linecap="round"/>
</svg>
