<svg width="33" height="35" viewBox="0 0 33 35" fill="none" xmlns="http://www.w3.org/2000/svg">
<path d="M16.5 7.6C18.3344 7.6 19.8214 6.12254 19.8214 4.3C19.8214 2.47746 18.3344 1 16.5 1C14.6656 1 13.1786 2.47746 13.1786 4.3C13.1786 6.12254 14.6656 7.6 16.5 7.6ZM24.2481 19.1733L24.2606 19.4373C24.4086 21.4294 26.0822 23 28.125 23C28.705 23 29.2551 22.8734 29.7491 22.6465L27.5714 34H5.42857L3.25103 22.6466C3.74496 22.8734 4.29511 23 4.875 23C6.9103 23 8.5791 21.441 8.73767 19.4593L8.74806 19.1733L8.76063 19.4373C8.90855 21.4294 10.5822 23 12.625 23C14.6678 23 16.3414 21.4294 16.4894 19.4373L16.4981 19.1733L16.5106 19.4373C16.6586 21.4294 18.3322 23 20.375 23C22.4178 23 24.0914 21.4294 24.2394 19.4373L24.2481 19.1733ZM16.5 1C18.3344 1 19.8214 2.47746 19.8214 4.3C19.8214 4.41873 19.8151 4.536 19.8028 4.65148C26.5654 6.10751 31.6839 11.9532 31.9859 19.0371L31.9616 18.6061C31.9869 18.7838 32 18.9654 32 19.15C32 21.2763 30.2651 23 28.125 23C25.9849 23 24.25 21.2763 24.25 19.15L24.2539 19.0102C24.2492 19.0575 24.25 19.1036 24.25 19.15C24.25 21.2763 22.5151 23 20.375 23C18.2349 23 16.5 21.2763 16.5 19.15L16.4981 19.1733C16.4853 21.2888 14.7572 23 12.625 23C10.4849 23 8.75 21.2763 8.75 19.15C8.75 21.2763 7.0151 23 4.875 23C2.7349 23 1 21.2763 1 19.15C1 18.9567 1.01434 18.7667 1.04201 18.5811L1.04975 18.4571C1.59806 11.6358 6.62011 6.06754 13.1995 4.64988C13.1849 4.536 13.1786 4.41873 13.1786 4.3C13.1786 2.47746 14.6656 1 16.5 1ZM10.1339 26.3L10.6875 30.7L10.1339 26.3Z" fill="#FED6FF"/>
<path d="M19.8214 4.3C19.8214 6.12254 18.3344 7.6 16.5 7.6C14.6656 7.6 13.1786 6.12254 13.1786 4.3M19.8214 4.3C19.8214 2.47746 18.3344 1 16.5 1C14.6656 1 13.1786 2.47746 13.1786 4.3M19.8214 4.3C19.8214 4.41873 19.8151 4.536 19.8028 4.65148C26.5654 6.10751 31.6839 11.9532 31.9859 19.0371L31.9616 18.6061C31.9869 18.7838 32 18.9654 32 19.15C32 21.2763 30.2651 23 28.125 23M13.1786 4.3C13.1786 4.41873 13.1849 4.536 13.1995 4.64988C6.62011 6.06754 1.59806 11.6358 1.04975 18.4571L1.04201 18.5811C1.01434 18.7667 1 18.9567 1 19.15C1 21.2763 2.7349 23 4.875 23M28.125 23C26.0822 23 24.4086 21.4294 24.2606 19.4373L24.2481 19.1733L24.2394 19.4373C24.0914 21.4294 22.4178 23 20.375 23M28.125 23C28.705 23 29.2551 22.8734 29.7491 22.6465L27.5714 34H5.42857L3.25103 22.6466C3.74496 22.8734 4.29511 23 4.875 23M28.125 23C25.9849 23 24.25 21.2763 24.25 19.15M4.875 23C6.9103 23 8.5791 21.441 8.73767 19.4593L8.74806 19.1733L8.76063 19.4373C8.90855 21.4294 10.5822 23 12.625 23M4.875 23C7.0151 23 8.75 21.2763 8.75 19.15C8.75 21.2763 10.4849 23 12.625 23M12.625 23C14.6678 23 16.3414 21.4294 16.4894 19.4373L16.4981 19.1733M12.625 23C14.7572 23 16.4853 21.2888 16.4981 19.1733M16.4981 19.1733L16.5106 19.4373C16.6586 21.4294 18.3322 23 20.375 23M16.4981 19.1733L16.5 19.15C16.5 21.2763 18.2349 23 20.375 23M20.375 23C22.5151 23 24.25 21.2763 24.25 19.15M24.25 19.15L24.2539 19.0102C24.2492 19.0575 24.25 19.1036 24.25 19.15ZM23.4196 26.3L22.8661 30.7M16.7768 26.3V30.7M10.1339 26.3L10.6875 30.7" stroke="#7F00AC" stroke-linejoin="round"/>
</svg>
