<svg width="38" height="33" viewBox="0 0 38 33" fill="none" xmlns="http://www.w3.org/2000/svg">
<path fill-rule="evenodd" clip-rule="evenodd" d="M12.7185 1.35168C16.6633 1.35168 20.1528 5.98004 22.2765 11.0601C23.838 8.55179 25.8488 6.69087 28.0426 6.69087C33.021 6.69087 37.0569 16.2739 37.0569 21.2523C37.0569 26.2307 33.021 30.2665 28.0426 30.2665C25.6037 30.2665 23.391 29.2979 21.7682 27.7243C19.6219 30.3347 16.3647 32 12.7185 32C6.24654 32 1 26.7535 1 20.2815C1 18.6341 1.33994 16.5989 1.9535 14.48L2.23302 13.5676C4.15624 7.61565 8.12929 1.35168 12.7185 1.35168ZM12.7185 32C19.1904 32 24.437 26.7535 24.437 20.2815C24.437 18.6341 24.097 16.5989 23.4834 14.48L23.2039 13.5676C21.2807 7.61565 17.3077 1.35168 12.7185 1.35168C8.12929 1.35168 4.15624 7.61565 2.23302 13.5676L1.9535 14.48C1.33994 16.5989 1 18.6341 1 20.2815C1 26.7535 6.24654 32 12.7185 32Z" fill="#fed6ff"/>
<path fill-rule="evenodd" clip-rule="evenodd" d="M12.7185 1.35168C16.6633 1.35168 20.1528 5.98004 22.2765 11.0601C23.838 8.55179 25.8488 6.69087 28.0426 6.69087C33.021 6.69087 37.0569 16.2739 37.0569 21.2523C37.0569 26.2307 33.021 30.2665 28.0426 30.2665C25.6037 30.2665 23.391 29.2979 21.7682 27.7243C19.6219 30.3347 16.3647 32 12.7185 32C6.24654 32 1 26.7535 1 20.2815C1 18.6341 1.33994 16.5989 1.9535 14.48L2.23302 13.5676C4.15624 7.61565 8.12929 1.35168 12.7185 1.35168ZM12.7185 32C19.1904 32 24.437 26.7535 24.437 20.2815C24.437 18.6341 24.097 16.5989 23.4834 14.48L23.2039 13.5676C21.2807 7.61565 17.3077 1.35168 12.7185 1.35168C8.12929 1.35168 4.15624 7.61565 2.23302 13.5676L1.9535 14.48C1.33994 16.5989 1 18.6341 1 20.2815C1 26.7535 6.24654 32 12.7185 32Z" stroke="#DEDEDE" stroke-linecap="round"/>
<path fill-rule="evenodd" clip-rule="evenodd" d="M12.7185 1.35168C16.6633 1.35168 20.1528 5.98004 22.2765 11.0601C23.838 8.55179 25.8488 6.69087 28.0426 6.69087C33.021 6.69087 37.0569 16.2739 37.0569 21.2523C37.0569 26.2307 33.021 30.2665 28.0426 30.2665C25.6037 30.2665 23.391 29.2979 21.7682 27.7243C19.6219 30.3347 16.3647 32 12.7185 32C6.24654 32 1 26.7535 1 20.2815C1 18.6341 1.33994 16.5989 1.9535 14.48L2.23302 13.5676C4.15624 7.61565 8.12929 1.35168 12.7185 1.35168ZM12.7185 32C19.1904 32 24.437 26.7535 24.437 20.2815C24.437 18.6341 24.097 16.5989 23.4834 14.48L23.2039 13.5676C21.2807 7.61565 17.3077 1.35168 12.7185 1.35168C8.12929 1.35168 4.15624 7.61565 2.23302 13.5676L1.9535 14.48C1.33994 16.5989 1 18.6341 1 20.2815C1 26.7535 6.24654 32 12.7185 32Z" stroke="#8D8D8D" stroke-linecap="round"/>
</svg>
