<svg width="17" height="17" viewBox="0 0 17 17" fill="none" xmlns="http://www.w3.org/2000/svg">
<path d="M7.90176 1.58104C8.19213 0.641364 9.52222 0.641361 9.8126 1.58104L11.0001 5.42379C11.1296 5.8428 11.5169 6.12855 11.9555 6.12855H15.9009C16.8574 6.12855 17.2681 7.34253 16.5079 7.9232L13.2311 10.4265C12.8981 10.6809 12.7591 11.1159 12.8828 11.5164L14.1138 15.5001C14.4013 16.4303 13.325 17.181 12.5513 16.5899L9.46424 14.2316C9.10584 13.9578 8.60852 13.9578 8.25012 14.2316L5.16303 16.5899C4.38934 17.181 3.31309 16.4303 3.60055 15.5L4.83158 11.5164C4.95531 11.1159 4.81624 10.6809 4.48322 10.4265L1.20641 7.9232C0.446299 7.34253 0.856941 6.12855 1.81347 6.12855H5.75886C6.19742 6.12855 6.5848 5.8428 6.71428 5.42379L7.90176 1.58104Z" fill="#FA2BB2"/>
</svg>
