<svg width="17" height="17" viewBox="0 0 17 17" fill="none" xmlns="http://www.w3.org/2000/svg">
<path fill-rule="evenodd" clip-rule="evenodd" d="M10.136 5.71903L8.94849 1.87628L7.76101 5.71903C7.50205 6.55705 6.72728 7.12855 5.85017 7.12855L1.90478 7.12855L5.18159 9.6318C5.84764 10.1406 6.12577 11.0108 5.87831 11.8116L4.64728 15.7953L7.73436 13.437C8.45117 12.8894 9.44581 12.8894 10.1626 13.437L13.2497 15.7953L12.0187 11.8116C11.7712 11.0108 12.0493 10.1406 12.7154 9.6318L15.9922 7.12855H12.0468C11.1697 7.12855 10.3949 6.55704 10.136 5.71903ZM9.90391 1.58104C9.61353 0.641361 8.28344 0.641364 7.99306 1.58104L6.80559 5.42379C6.67611 5.8428 6.28872 6.12855 5.85017 6.12855H1.90478C0.948249 6.12855 0.537608 7.34253 1.29772 7.9232L4.57452 10.4265C4.90755 10.6809 5.04662 11.1159 4.92288 11.5164L3.69185 15.5C3.4044 16.4303 4.48065 17.181 5.25434 16.5899L8.34143 14.2316C8.69983 13.9578 9.19715 13.9578 9.55555 14.2316L12.6426 16.5899C13.4163 17.181 14.4926 16.4303 14.2051 15.5001L12.9741 11.5164C12.8504 11.1159 12.9894 10.6809 13.3225 10.4265L16.5993 7.9232C17.3594 7.34253 16.9487 6.12855 15.9922 6.12855H12.0468C11.6082 6.12855 11.2209 5.8428 11.0914 5.42379L9.90391 1.58104Z" fill="#FA2BB2"/>
</svg>
