<svg width="366" height="78" viewBox="0 0 366 78" fill="none" xmlns="http://www.w3.org/2000/svg">
<path fill-rule="evenodd" clip-rule="evenodd" d="M0.000366211 36.7619V29.4678C63.8809 12.5594 110.131 8.3282 148.084 10.9144C185.655 13.4745 214.618 22.7651 243.225 31.9414L243.225 31.9415C249.636 33.9979 256.029 36.0486 262.497 38.0165C305.929 51.2308 343.985 47.9715 366 42.7494V49.8053C340.495 55.0534 300.819 57.1718 256.652 43.7335C249.706 41.6201 242.998 39.4735 236.398 37.3614L236.397 37.3608C207.936 28.2525 181.486 19.7874 146.597 17.41C110.703 14.9642 65.354 19.0134 0.000366211 36.7619Z" fill="white" fill-opacity="0.18"/>
<path fill-rule="evenodd" clip-rule="evenodd" d="M0 47.4469V34.4108C63.8807 4.19126 110.131 -3.37089 148.084 1.25127C185.655 5.82673 214.618 22.4313 243.225 38.8315C249.636 42.5068 256.029 46.1719 262.497 49.689C305.928 73.306 343.985 67.481 366 58.1481V70.7586C340.495 80.1379 300.819 83.924 256.652 59.9067C249.706 56.1296 242.998 52.293 236.398 48.5182L236.397 48.5172C207.936 32.2386 181.486 17.1094 146.597 12.8605C110.703 8.48914 65.3539 15.7261 0 47.4469Z" fill="white" fill-opacity="0.18"/>
<path fill-rule="evenodd" clip-rule="evenodd" d="M366 30.4813L366 41.9019C302.119 68.3763 255.869 75.0013 217.916 70.9519C180.345 66.9435 151.382 52.3967 122.775 38.029L122.775 38.0289C116.364 34.8091 109.971 31.5982 103.503 28.5169C60.0715 7.82662 22.0148 12.9299 -2.62081e-05 21.1063L-2.64835e-05 10.0586C25.5048 1.84148 65.1806 -1.47548 109.348 19.5655C116.295 22.8747 123.003 26.2361 129.603 29.5433L129.603 29.5435C158.064 43.8048 184.514 57.0591 219.403 60.7814C255.298 64.611 300.646 58.2709 366 30.4813Z" fill="white" fill-opacity="0.18"/>
</svg>
