<svg width="114" height="116" viewBox="0 0 114 116" fill="none" xmlns="http://www.w3.org/2000/svg">
<path d="M55.9369 115.823C86.5935 115.823 111.446 114.372 111.446 112.583C111.446 110.793 86.5935 109.342 55.9369 109.342C25.2803 109.342 0.428223 110.793 0.428223 112.583C0.428223 114.372 25.2803 115.823 55.9369 115.823Z" fill="#F5F5F5"/>
<path d="M60.4208 9.40347C60.9189 9.2985 61.4133 9.1878 61.9038 9.07138C73.9909 6.28578 87.813 4.67111 98.294 9.58384C108.569 14.3964 107.306 24.5969 101.297 33.9642C91.0108 49.9965 52.0554 65.2099 41.5429 48.9086C38.1446 43.6408 44.0021 34.3651 39.7879 28.1554C34.9897 21.0841 12.7851 25.5559 17.2226 9.93311C19.6818 1.26999 25.9916 1.77958 32.771 4.59095C36.6616 6.20276 40.3777 8.20964 44.4029 9.57238C49.2899 11.23 54.9928 10.5658 60.4208 9.40347Z" fill="#F2DDEB"/>
<path opacity="0.9" d="M60.6437 14.2525C61.1403 14.0747 61.6331 13.8872 62.1221 13.69C74.1713 8.97231 87.95 6.23769 98.3982 14.5579C108.641 22.7085 107.382 39.9841 101.392 55.8488C91.1378 83.0011 52.3046 108.767 41.825 81.1586C38.4374 72.2371 44.2765 56.5276 40.0756 46.0109C35.2924 34.0348 13.1574 41.6084 17.581 15.1495C20.0325 0.477523 26.3225 1.34058 33.0806 6.10192C36.9591 8.8317 40.6635 12.2306 44.6761 14.5385C49.5477 17.3459 55.2327 16.221 60.6437 14.2525Z" fill="#F2DDEB"/>
<path d="M64.0624 22.7652L62.5754 27.7167L62.2535 29.2439L61.996 30.553L46.9306 41.5346C45.7717 42.5527 43.5736 42.3189 42.7366 42.5371C42.485 42.6027 41.8368 42.8072 41.8194 43.0551C41.9723 43.4005 42.6175 43.0551 43.0423 43.0551C43.4671 43.0551 43.7226 43.3056 43.8066 43.4005C43.8907 43.4954 43.9595 43.5731 43.6538 43.9185C43.5569 44.0279 43.3871 43.9475 43.0423 44.9545C43.0059 45.0608 42.9842 45.7527 43.1952 45.8179C43.2244 45.8269 43.3869 45.7776 43.5009 45.8179C43.5529 45.8363 43.6128 45.8259 43.6726 45.8179H43.8066C43.9688 45.8594 44.1098 45.9505 44.2265 45.7527C44.5005 45.2886 45.0642 45.1956 45.4881 45.1272C46.5582 44.9545 48.7333 44.8072 48.7333 44.8072L52.3387 44.2982L62.5754 40.7346C64.6571 40.2013 69.2583 38.3492 71.0095 35.2074C72.7606 32.0657 74.3975 26.0613 75.2773 24.4613L64.0624 22.7652Z" fill="#6A279F"/>
<path d="M26.3807 55.8783L20.6195 51.041" stroke="#FB55C1" stroke-miterlimit="10"/>
<path d="M29.3667 58.3862L27.6116 56.9093" stroke="#FB55C1" stroke-miterlimit="10"/>
<path d="M46.6252 68.5102L65.6318 44.7555L40.3253 23.5086L23.559 42.7471L21.0619 47.5594C20.9379 47.696 20.8434 47.8567 20.7844 48.0315C20.7254 48.2063 20.703 48.3914 20.7188 48.5752C20.7345 48.759 20.788 48.9376 20.8759 49.0998C20.9637 49.262 21.0841 49.4043 21.2295 49.5178L44.0603 68.6885C44.4315 68.9877 44.9021 69.1355 45.3777 69.1024C45.8533 69.0694 46.2989 68.8578 46.6252 68.5102Z" fill="#FB55C1"/>
<path opacity="0.5" d="M33.5902 50.9911L30.8541 55.3967L31.9564 55.6357L32.331 56.656L33.0623 56.6988L33.4012 57.5728L34.2966 57.8332L34.9851 58.9283L37.7212 54.5227L33.5902 50.9911Z" fill="white"/>
<path opacity="0.1" d="M64.8042 44.0599L47.7596 63.0736L23.5483 42.7471L40.3254 23.5086L64.8042 44.0599Z" fill="black"/>
<path d="M64.8042 44.0598L47.7596 63.0735L54.8158 63.5944L71.5964 44.3559L64.8042 44.0598Z" fill="#FB55C1"/>
<path opacity="0.3" d="M64.8042 44.0598L47.7596 63.0735L54.8158 63.5944L71.5964 44.3559L64.8042 44.0598Z" fill="black"/>
<path d="M33.5367 23.209L16.4885 42.2262L23.5482 42.7471L40.3252 23.5086L33.5367 23.209Z" fill="#FB55C1"/>
<path opacity="0.4" d="M33.5367 23.209L16.4885 42.2262L23.5482 42.7471L40.3252 23.5086L33.5367 23.209Z" fill="black"/>
<path opacity="0.1" d="M59.5568 49.9138L64.8043 44.0599L40.3255 23.5086L37.1934 31.057L59.5568 49.9138Z" fill="black"/>
<path opacity="0.2" d="M23.5483 42.7471L40.3254 23.5086L37.1933 31.057L25.3784 44.2846L23.5483 42.7471Z" fill="black"/>
<path d="M78.9077 5.11808C79.2204 4.85828 78.9683 4.39576 79.1358 4.25659L79.9176 3.60709L81.6249 5.54851L82.6292 5.96206L82.9894 6.62279C83.234 6.80358 83.1907 7.31952 83.9551 6.87639C84.3575 6.64316 84.8726 4.6169 84.2061 3.88396C83.1122 2.68086 83.9306 2.40698 83.4646 2.19615C82.9916 1.9822 82.9919 2.87684 81.9789 2.56646C81.6266 2.4585 81.212 2.58153 80.6136 2.74082C79.7635 2.96714 79.0808 3.05433 78.4752 3.46147C77.8696 3.8686 77.4787 4.19334 77.4056 4.44611C77.3324 4.69887 77.8813 5.58677 78.0316 5.65397C78.1818 5.72117 78.5168 5.44283 78.9077 5.11808Z" fill="black"/>
<path d="M89.7685 94.555H77.9492C78.4902 98.9413 80.4626 110.689 80.7005 112.19L78.8415 113.466H84.5673H85.4706C85.4706 113.466 89.7685 113.636 89.7685 113.466C89.8716 113.362 89.7685 94.555 89.7685 94.555Z" fill="#6A279F"/>
<path d="M80.6825 9.41656C80.1153 9.87457 78.8088 8.81072 77.5194 8.59582C77.5593 8.64527 77.5623 11.4018 77.7559 12.194C77.9365 12.9332 78.3727 14.3694 78.6677 14.5941C79.1495 14.961 80.331 15.6933 82.1849 16.0509C84.5135 16.5002 88.6815 14.315 88.6941 12.464C88.7018 11.3257 90.0582 10.508 88.6941 9.24061C88.6941 9.24061 83.4851 8.59582 84.0224 6.80126C83.8288 6.84662 83.7341 6.83396 83.4851 6.66333C83.3509 6.57141 83.2204 6.48179 83.0625 6.35104C82.8386 6.16554 82.5975 5.90965 82.5975 5.90965C82.6042 5.49587 83.0707 5.2008 82.7912 4.85468C82.4693 4.45604 81.6623 5.25944 81.2772 4.91693L80.7593 4.37161L80.1424 3.6077L79.9208 3.33326L78.9553 4.11294C78.982 4.98994 78.9816 6.17879 78.9816 6.17879C79.0338 6.73569 79.07 7.65953 79.4293 8.10454C79.7168 8.46054 79.9522 8.61763 80.674 8.03472L81.1531 8.62806C81.2934 8.87831 80.9046 9.23719 80.6825 9.41656Z" fill="#6A279F"/>
<path d="M79.5935 6.96541C79.6012 6.86392 79.6702 5.95056 79.7624 5.40183L79.8316 5.15755" stroke="#380A0E"/>
<path d="M71.0138 7.57293C70.0022 7.57293 66.3447 7.95121 64.4106 12.4641C62.4765 16.9769 63.7659 24.0643 63.7659 24.0643H68.7859L69.976 25.7084V27.0535C69.976 27.0535 81.799 27.0771 82.3197 27.0771C82.6172 26.0309 84.0304 21.4725 84.0304 21.4725H84.923L97.4189 25.2089L100.469 19.0811C101.733 16.5404 101.882 13.2523 101.138 11.8325C100.097 8.76858 97.047 7.19928 94.5181 6.90036C92.4949 6.66123 89.4602 8.2953 88.1957 9.14223C88.2949 9.74006 88.4316 11.001 88.0469 11.9819C87.08 14.448 85.4437 15.4942 82.7659 15.5689C80.0882 15.6436 78.9712 14.2032 78.2287 13.1776C77.6337 12.3556 77.5593 9.29169 77.5593 8.69386C76.518 7.72239 72.2783 7.57293 71.0138 7.57293Z" fill="#FFA4DF"/>
<path d="M70.0415 18.4812C70.0702 19.2113 70.6426 20.954 70.6426 20.954C70.6426 20.954 68.4102 21.6605 68.496 23.6388" stroke="black" stroke-width="2"/>
<path d="M84.3961 20.6302L86.1152 15.0429" stroke="black" stroke-width="2"/>
<path d="M81.9821 27.0771H69.8377C69.8377 27.524 69.6748 29.3565 69.9118 34.6007C70.1488 39.8448 72.5326 56.8896 73.52 64.736L78.0371 94.9794H89.9976C90.1175 95.5272 90.1864 95.8444 90.1864 95.8444C90.1864 95.8444 93.6368 94.9848 99.0092 94.9848C99.0092 94.9848 98.8743 89.8131 98.1496 86.6038C97.3092 82.8816 94.6966 77.4632 94.6966 77.4632C94.6966 77.4632 101.57 48.4736 101.803 47.0626C102.036 45.6516 102.448 40.8305 102.448 40.8305C102.448 40.8305 102.888 35.2818 101.14 32.4833C99.7179 30.2069 97.4094 28.1448 95.8297 28.12L81.9821 27.0771Z" fill="#FA2BB2"/>
<path d="M83.8148 3.22063C84.2703 3.39549 85.0596 3.1612 85.215 2.96415C85.7138 2.33185 85.3162 1.56171 85.1033 1.21595C84.8373 0.783745 84.713 0.681025 84.2617 0.562807C83.8105 0.444588 83.3484 0.487237 82.9038 0.756639C82.4593 1.02604 82.6753 1.71409 82.7778 2.13854C82.8804 2.563 82.9462 2.88718 83.8148 3.22063Z" fill="black"/>
<path d="M84.026 20.6302L82.4716 25.8638L82.1015 27.4118L81.8054 28.7386L64.4847 39.8693C63.1523 40.9013 60.6251 40.6643 59.6628 40.8854C59.3735 40.9519 58.6283 41.1592 58.6083 41.4105C58.7841 41.7605 59.5259 41.4105 60.0143 41.4105C60.5027 41.4105 60.7964 41.6643 60.893 41.7605C60.9896 41.8567 61.0688 41.9356 60.7173 42.2856C60.6059 42.3965 60.4107 42.315 60.0143 43.3357C59.9725 43.4434 59.9475 44.1447 60.1901 44.2108C60.2236 44.2199 60.4105 44.1699 60.5415 44.2108C60.6014 44.2294 60.6702 44.2189 60.7389 44.2108H60.893C61.0795 44.2529 61.2416 44.3451 61.3758 44.1447C61.6907 43.6743 62.3389 43.58 62.8263 43.5107C64.0565 43.3357 66.5572 43.1864 66.5572 43.1864L70.7023 42.6704L82.4716 39.0585C84.8649 38.5179 90.1549 36.6407 92.1682 33.4563C94.1816 30.2719 96.7081 26.2324 97.7197 24.6107L84.026 20.6302Z" fill="#6A279F"/>
<path d="M60.3274 44.2689L60.6498 43.1944L61.1333 42.5497M60.6498 44.2689L60.811 43.6242L61.4556 42.9795M60.9721 44.2689L61.1333 43.8391L61.6168 43.4093" stroke="#380A0E" stroke-width="0.25"/>
<path d="M95.7412 109.791L101.254 104.458C100.477 103.655 99.9793 103.13 99.8686 102.291C99.7111 101.097 99.009 97.9933 99.009 94.6015L86.2783 94.6015C89.0336 100.914 94.2867 113.167 94.5517 112.91C95.0947 112.385 95.5062 110.467 95.7412 109.791Z" fill="#6A279F"/>
<path d="M84.4208 42.9832L84.7538 45.4281C80.518 55.2825 77.5258 64.2459 77.5258 75.4291C77.5258 81.9364 82.247 85.9591 84.8258 91.7613C86.9748 95.8444 88.4791 98.853 89.9833 102.076" stroke="black" stroke-width="2"/>
<path d="M10.6743 92.8662H47.4453V111.85C47.4453 112.093 47.3974 112.334 47.3043 112.559C47.2112 112.784 47.0748 112.988 46.9028 113.16C46.7308 113.332 46.5266 113.468 46.3019 113.561C46.0771 113.654 45.8363 113.702 45.593 113.702H12.5266C12.2834 113.702 12.0425 113.654 11.8178 113.561C11.593 113.468 11.3888 113.332 11.2168 113.16C11.0448 112.988 10.9084 112.784 10.8153 112.559C10.7222 112.334 10.6743 112.093 10.6743 111.85V92.8662Z" fill="#FA2BB2"/>
<path d="M10.6743 92.8662H36.6952L33.4945 88.7694C33.1423 88.3199 32.272 87.9564 31.5477 87.9564H8.14639C7.42494 87.9564 7.12148 88.3199 7.47361 88.7694L10.6743 92.8662Z" fill="#FA2BB2"/>
<path opacity="0.2" d="M10.6743 92.8662H36.6952L33.4945 88.7694C33.1423 88.3199 32.272 87.9564 31.5477 87.9564H8.14639C7.42494 87.9564 7.12148 88.3199 7.47361 88.7694L10.6743 92.8662Z" fill="black"/>
<path d="M47.4452 92.8662H21.4272L24.628 90.1952C24.9801 89.9089 25.8504 89.6655 26.5747 89.6655H49.9732C50.6975 89.6655 50.9981 89.9031 50.6459 90.1952L47.4452 92.8662Z" fill="#FA2BB2"/>
<path opacity="0.2" d="M21.4272 92.8662H47.4452V111.85C47.4452 112.093 47.3973 112.334 47.3042 112.559C47.2111 112.784 47.0747 112.988 46.9027 113.16C46.7307 113.332 46.5265 113.468 46.3018 113.561C46.077 113.654 45.8362 113.702 45.5929 113.702H23.2795C23.0363 113.702 22.7954 113.654 22.5707 113.561C22.346 113.468 22.1418 113.332 21.9698 113.16C21.7978 112.988 21.6613 112.784 21.5682 112.559C21.4752 112.334 21.4272 112.093 21.4272 111.85V92.8662Z" fill="white"/>
<path opacity="0.5" d="M13.9036 92.8662V105.887L14.8025 105.177L15.4352 105.887L15.9849 105.097L16.5489 105.887L17.3333 105.294L18.1979 105.887V92.8662H13.9036Z" fill="white"/>
</svg>
