<svg width="107" height="132" viewBox="0 0 107 132" fill="none" xmlns="http://www.w3.org/2000/svg">
<path opacity="0.9" d="M80.4301 64.9577C80.4997 65.6193 80.5783 66.2769 80.6657 66.9307C82.6998 83.0261 82.7631 101.144 73.9702 113.761C65.3554 126.13 50.8677 122.636 38.3571 113.174C16.9457 96.9785 1.40709 43.9646 26.6111 33.3903C34.7559 29.9718 47.1593 39.2213 56.7945 34.9229C67.7667 30.029 64.9597 0.579189 86.7389 9.15839C98.816 13.9139 97.049 21.9569 91.8892 30.1845C88.9304 34.9066 85.431 39.3312 82.809 44.2724C79.6211 50.2708 79.6443 57.7459 80.4301 64.9577Z" fill="#F2DDEB"/>
<path d="M90.2596 56.378L84.8589 46.351C88.6036 44.8976 96.7538 42.1964 98.0581 41.7417C99.3624 41.2871 100.188 41.0636 100.165 40.9727L100.378 38.9219L102.868 43.5451L102.553 44.046C102.553 44.046 98.2615 52.068 98.1251 52.1415C98.0865 52.2696 90.2596 56.378 90.2596 56.378Z" fill="#6A279F"/>
<path d="M35.9749 78.1969L32.7038 65.9439C32.7059 65.9427 32.7078 65.9417 32.7096 65.9407C32.7076 65.9417 32.7057 65.9426 32.7037 65.9436C28.3984 68.0161 33.01 65.7761 32.7096 65.9407C37.0474 63.8541 51.8169 58.3909 58.5694 55.7862L84.9191 46.3188L90.3198 56.3458L76.1099 63.7138C76.3709 64.2519 76.7665 65.0901 77.3511 66.3519C81.3454 74.9722 81.6365 85.16 80.8269 89.37C80.0172 93.5799 67.8731 90.3415 67.8731 90.3415L64.9586 77.5498L53.8748 87.8485C53.3945 88.1072 52.9895 88.7171 51.6995 89.5623C48.3788 91.7382 47.6285 92.7324 44.5453 93.1059C36.6223 94.0658 33.5458 89.5623 32.7037 85.16L35.9749 78.1969Z" fill="#FA2BB2"/>
<path d="M73.1057 103.65L67.6558 99.1105C68.3105 98.3245 68.2435 98.2803 68.2841 97.5038C68.3418 96.3981 68.0352 92.2968 67.8541 90.1342L80.8267 89.0463C80.1541 94.9745 74.687 106.653 74.425 106.435C73.8881 105.987 73.3708 104.255 73.1057 103.65Z" fill="#6A279F"/>
<path d="M48.37 48.5657C48.37 48.5657 50.124 49.1582 51.4003 49.2447C52.0139 49.2862 52.978 49.2447 52.978 49.2447L60.712 36.6559C61.4288 35.6843 61.2667 33.8817 61.4208 33.1896C61.4672 32.9815 61.6116 32.4449 61.7859 32.426C62.0285 32.5452 61.7851 33.0821 61.7847 33.4313C61.7842 33.7805 61.96 33.9859 62.0267 34.0532C62.0933 34.1205 62.1479 34.1756 62.3909 33.9179C62.4679 33.8362 62.4116 33.6981 63.1198 33.396C63.1945 33.3641 63.6809 33.3334 63.7265 33.5056C63.7328 33.5294 63.698 33.664 63.7262 33.7569C63.7391 33.7994 63.7317 33.8487 63.726 33.8981L63.7259 34.0083C63.7549 34.1408 63.8188 34.255 63.6796 34.3547C63.3532 34.5885 63.2872 35.0537 63.2387 35.4034C63.1163 36.2862 63.0106 38.077 63.0106 38.077L62.6492 41.0504L60.1342 49.5318C59.7573 51.253 58.1056 54.6528 56.2408 56.5678C54.6093 58.2432 51.7356 60.224 50.1512 60.2241L48.37 48.5657Z" fill="#6A279F"/>
<path d="M44.0632 68.4232L45.4582 69.1436C52.4691 64.567 68.3951 57.0218 76.0115 63.454" stroke="black" stroke-width="2"/>
<path d="M30.315 46.2635C29.9614 46.3335 29.7678 45.8869 29.5784 45.9244L28.6944 46.0994L29.1577 48.4324L28.9112 49.3819L29.1879 50.0199C29.1849 50.2976 29.5758 50.5666 28.8482 50.8492C28.4653 50.9979 26.7442 50.1851 26.5811 49.2889C26.3134 47.8178 25.6773 48.2367 25.7782 47.7851C25.8806 47.3269 26.5178 47.8466 26.8425 46.951C26.9554 46.6394 27.2664 46.4181 27.7023 46.088C28.3216 45.619 28.7515 45.1875 29.3678 44.9962C29.9841 44.8049 30.4261 44.7174 30.6456 44.8125C30.8651 44.9076 31.2019 45.8108 31.1688 45.9559C31.1358 46.101 30.757 46.176 30.315 46.2635Z" fill="black"/>
<path d="M32.9582 50.9362C33.6527 50.7987 34.5305 49.7243 35.3723 49.0727L35.7182 50.5976C35.9107 51.4463 35.8346 52.4682 35.8357 52.8606C35.7987 53.3759 35.3218 54.9575 33.6622 55.7849C31.5878 56.8191 29.2966 56.0256 28.0608 55.231C27.0722 54.5954 26.4912 53.2556 26.3076 51.2828C26.3076 51.2828 27.3375 51.6713 27.9027 51.8365C28.3267 51.9604 28.4646 51.895 28.9324 51.8024C29.1213 51.765 29.1288 51.5948 29.1427 51.2785L29.1429 51.2758C29.1504 51.1045 29.1576 50.9376 29.1488 50.7204C29.1363 50.4121 29.0789 50.0414 29.0789 50.0414C28.7511 49.7599 28.2437 49.9296 28.1385 49.4655C28.0172 48.931 29.1241 48.8405 29.0843 48.2942L28.9643 47.5008L28.732 46.4764L28.6485 46.1084L29.8308 45.8744C30.5013 46.5037 31.432 47.3275 31.432 47.3275C31.8369 47.7554 32.5385 48.4248 32.6739 49.0215C32.7822 49.4988 32.7656 49.7965 31.8817 49.9715L32.0622 50.7671C32.175 51.0531 32.6862 50.99 32.9582 50.9362Z" fill="#6A279F"/>
<path d="M40.6474 47.0112C43.6735 46.6149 46.7507 48.2419 48.3699 48.5658L50.8081 60.1026L46.2649 61.1956L45.2934 63.6245C45.2934 63.6245 44.9696 64.7579 45.2934 67.5106C45.7865 71.7016 43.9087 71.3966 40.0971 75.5988C36.2855 79.8011 32.796 85.2966 32.796 85.2966L21.7832 67.0954L17.9613 62.1711C16.3766 60.1294 15.5886 57.2371 15.9342 55.8524C16.2015 52.959 18.4743 51.0542 20.5608 50.364C22.23 49.8119 25.1348 50.7518 26.3786 51.2907C26.4148 51.8378 26.5526 52.9795 27.0764 53.7852C28.3936 55.8107 29.9931 56.4639 32.2811 56.0803C34.569 55.6966 35.2273 54.2309 35.6511 53.1962C35.9908 52.3669 35.4373 49.636 35.317 49.1056C36.0054 48.0687 38.415 47.3035 40.6474 47.0112Z" fill="#FFA4DF"/>
<path d="M43.8519 56.4977C43.9862 57.187 43.9363 58.9058 43.9363 58.9058C43.9363 58.9058 46.9853 59.0906 45.2042 62.8147" stroke="black" stroke-width="2"/>
<path d="M32.1175 60.8989L29.3931 56.4501" stroke="black" stroke-width="2"/>
<path d="M23.9711 46.4688C24.1995 46.0946 24.881 45.8662 25.0955 45.9392C25.7838 46.1735 25.9128 46.9829 25.9465 47.3642C25.9887 47.8408 25.9556 47.9859 25.7001 48.3136C25.4445 48.6413 25.0958 48.8489 24.6388 48.8701C24.1818 48.8913 23.9683 48.2408 23.8149 47.8555C23.6615 47.4702 23.5355 47.1824 23.9711 46.4688Z" fill="black"/>
<path d="M32.2707 60.7022L34.6644 65.1471L35.2959 66.477L35.8192 67.6204L52.8643 74.7072C54.2113 75.4105 56.5187 75.2463 57.3846 75.2827C57.6449 75.2937 58.0168 75.7078 58.0851 75.9304C58.0066 76.2749 57.5301 75.7194 57.1135 75.8018C56.6969 75.8843 56.3765 75.699 56.3137 75.8018C56.2509 75.9047 56.1995 75.9889 56.5707 76.2444C56.6884 76.3254 56.7292 76.2128 57.2755 77.0639C57.3332 77.1537 57.2755 77.2258 57.1136 77.5496C57.1002 77.5764 57.0552 77.6527 56.9517 77.7116C56.8682 77.7591 56.9517 77.7116 56.7898 77.7116C56.6278 77.7116 56.9517 77.7207 56.4659 77.7116C55.9802 77.7025 55.4517 77.6825 55.0218 77.7025C53.9368 77.7528 51.7733 78.0408 51.7733 78.0408L48.1323 78.2766L37.3565 77.0151C35.2048 76.933 30.3096 76.1378 27.9425 73.6135C25.5755 71.0893 22.5962 67.8826 21.4025 66.5947L32.2707 60.7022Z" fill="#6A279F"/>
<path d="M31.6833 49.9696L31.8638 50.7649" stroke="#380A0E"/>
<path d="M57.2125 77.4791L56.8896 76.9598L56.3423 76.6186M56.9517 77.5496L56.8048 77.2763L56.1076 76.9648M56.7525 77.7363L56.5375 77.4791L56.0227 77.2813" stroke="#380A0E" stroke-width="0.25"/>
<path d="M54.176 130.106C82.9586 130.106 106.292 128.744 106.292 127.064C106.292 125.383 82.9586 124.021 54.176 124.021C25.3934 124.021 2.06042 125.383 2.06042 127.064C2.06042 128.744 25.3934 130.106 54.176 130.106Z" fill="#F2DDEB"/>
<path d="M59.6641 92.9413V92.5321H60.0733V93.3505H52.6398C52.6398 93.3505 52.367 94.578 51.2076 94.7826H41.4554C41.4554 94.7826 32.999 106.922 28.2934 113.537C28.0888 113.741 28.0888 114.082 28.0888 114.355C28.0888 114.628 28.3615 115.105 28.3615 115.105L29.4527 117.22C32.5216 117.174 39.4368 117.22 42.2738 117.22C44.5925 117.22 46.9112 119.606 47.525 121.243H46.843C46.1883 119.17 43.5013 117.833 42.2738 117.697H29.6573L31.7714 121.243H31.0212C31.0212 121.243 29.8619 119.402 29.2481 118.856C28.9097 118.555 28.4642 118.297 28.0888 118.106C27.7358 117.927 27.0525 117.697 26.6566 117.697H13.9037L13.5627 117.22H27.134C28.157 117.22 29.4527 118.311 29.4527 118.311C29.4527 118.311 28.4979 116.401 27.8842 115.105C27.7694 114.863 27.6539 114.478 27.6539 114.274C27.6539 114.069 27.6114 113.878 27.816 113.537C33.2426 105.397 40.978 94.7826 40.978 94.7826C40.978 94.7826 40.4143 94.4485 40.2279 94.1688C40.0414 93.8892 40.0233 93.3505 40.0233 93.3505H36.477V92.9413H52.2306H59.6641Z" fill="black"/>
<path d="M59.8685 92.1229H36.6133V92.5321H60.2095L64.9833 79.3018L65.1879 77.5287H20.5869V78.0061H50.5937L51.0711 78.8926H56.7315L57.277 78.0061H62.0508L62.3236 78.8926H64.3695L64.5741 79.3018L59.8685 92.1229Z" fill="black"/>
<path d="M10.1528 61.8433H27.9523L32.4533 65.3214V66.1397L44.1832 91.9865H43.2285L31.7713 66.6853L30.612 66.1397L27.4749 63.3436H25.9746V62.7981L12.9489 63.0026V63.48C12.9489 63.48 14.5856 64.7076 15.3358 65.2532C15.404 65.5941 15.404 66.1397 15.404 66.1397L27.3385 92.1229H36.7497C36.7952 92.4639 36.8589 93.2004 36.7497 93.4186C36.4429 94.0324 35.8632 94.4416 35.3176 94.6462H25.9064L12.7443 113.332C12.7443 113.332 12.5397 113.605 12.5397 114.219C12.5397 114.764 12.7443 115.105 12.7443 115.105L15.745 121.107L59.1184 121.175V121.516L54.0718 121.508C54.0718 121.508 55.2312 123.425 55.845 124.38C56.5951 124.38 57.2771 124.789 57.2771 125.54C57.2771 126.562 56.7315 126.835 56.0496 126.835C55.2312 126.835 54.6174 126.426 54.6174 125.676C54.6174 124.448 55.504 124.38 55.504 124.38L53.7991 121.507L43.7741 121.491C43.7741 121.491 44.7288 123.357 45.3426 124.38C45.8882 124.312 46.6383 124.677 46.6383 125.471C46.6383 126.153 46.5701 126.903 45.479 126.903C44.5242 126.903 44.2435 126.208 44.2514 125.471C44.2599 124.694 44.9334 124.448 44.9334 124.448L43.3649 121.49L28.2933 121.465C28.2933 121.465 29.3162 123.425 29.7936 124.38C30.271 124.38 31.2258 124.516 31.2258 125.608C31.2258 126.358 30.953 126.903 29.8618 126.903C29.248 126.903 28.5661 126.562 28.5661 125.608C28.5661 124.653 29.3844 124.38 29.3844 124.38L27.8841 121.464L17.7909 121.448C18.2228 122.447 19.223 123.971 19.4958 124.448C20.246 124.448 20.6552 124.789 20.6552 125.608C20.6552 126.426 20.246 126.835 19.4958 126.835C19.0866 126.835 18.3365 126.631 18.3365 125.608C18.3365 124.789 18.7457 124.63 19.0185 124.448L17.3135 121.448H15.404L12.1305 114.901C12.1305 114.901 11.9941 114.56 11.9941 114.151C11.9941 113.741 12.1305 113.469 12.1305 113.469L25.088 94.9872V94.6462H24.6106C24.6106 94.6462 24.1332 94.4416 24.1332 93.6914C24.1332 92.7366 24.6106 92.4639 24.6106 92.4639H26.111V91.9865L19.9732 78.4152L14.9266 66.6853C14.9266 66.6853 13.6991 66.1738 13.4263 65.9351C13.1535 65.6964 11.0394 63.48 11.0394 63.48H8.78886C8.78886 63.48 8.44788 63.0026 8.44788 62.5253C8.44788 62.1161 9.33444 61.9797 9.33444 61.9797L10.1528 61.8433Z" fill="#0C0A05"/>
<path d="M49.5027 92.1911L54.2765 78.8926H54.6857L49.9801 92.1911H49.5027Z" fill="black"/>
<path d="M63.483 83.2573H22.9739V83.6664H63.1415L63.483 83.2573Z" fill="#0C0A05"/>
<path d="M61.4199 35.3988C63.0334 33.5531 64.6497 31.6159 65.4206 29.2887C66.2257 26.8584 65.8391 23.7975 63.7473 22.3212C61.9902 21.0812 59.4726 21.3308 57.6802 22.5194C55.8879 23.7079 54.7353 25.667 54.0234 27.6963C53.7459 25.618 51.0414 24.4905 49.1381 25.3704C47.2349 26.2502 46.2781 28.5366 46.4397 30.6272C46.6012 32.7178 47.6769 34.6293 48.922 36.3163C51.0138 39.1437 53.6303 41.5419 56.6286 43.3802C56.7383 42.692 56.9281 42.0189 57.1941 41.3748C58.1296 39.1088 59.8065 37.2445 61.4199 35.3988Z" fill="#FA2BB2"/>
<path d="M56.1339 43.6353C52.647 41.3362 49.7368 38.2644 47.6295 34.6583C46.5409 32.7835 45.6173 30.5714 45.9595 28.3582C46.2242 26.6465 47.2739 24.8898 48.9858 24.3127C50.7925 23.7037 53.2746 24.8844 53.3806 26.9357C53.3885 27.0889 53.6198 27.1933 53.6978 27.0255C54.7101 24.8479 56.311 22.6705 58.684 21.8883C60.7977 21.1915 63.3328 21.6864 64.52 23.7105C65.7566 25.8187 65.2487 28.5151 64.0851 30.529C62.7942 32.7629 60.8033 34.4608 58.9664 36.2281C57.1591 37.9669 55.3632 39.9002 54.6054 42.3484C54.2386 43.485 54.1412 44.6913 54.3211 45.872C54.5239 47.0862 55.1094 48.1333 55.9504 49.0216C56.8438 49.9653 57.8567 50.7745 58.7 51.7691C59.5308 52.7528 60.2466 53.8281 60.8337 54.974C62.0111 57.2564 62.6612 59.774 62.7359 62.3411C62.8572 67.0234 60.8983 71.6747 57.5364 74.9241C57.1301 75.3162 56.7042 75.6875 56.2605 76.0367C56.4661 76.2543 56.3041 76.0924 56.5003 76.2791C58.3453 74.808 59.8739 72.9792 60.9944 70.9025C62.1148 68.8258 62.8039 66.544 63.0203 64.1943C63.4723 59.039 61.4357 53.7554 57.6836 50.201C56.7017 49.2708 55.6201 48.4018 55.0513 47.1393C54.5301 45.9823 54.465 44.6525 54.6928 43.4166C55.1806 40.7697 56.9563 38.6747 58.8228 36.8428C60.6889 35.0113 62.7482 33.3114 64.154 31.0746C65.4053 29.0834 66.0514 26.5347 65.1639 24.2661C64.771 23.2261 64.0181 22.3617 63.0419 21.8298C62.0684 21.3352 60.9691 21.1437 59.8858 21.2799C57.4604 21.5507 55.5513 23.2244 54.2859 25.2224C53.9572 25.746 53.6627 26.2904 53.4044 26.852L53.7216 26.9418C53.6259 25.0902 51.8116 23.8322 50.0589 23.8076C48.1529 23.7807 46.6541 25.2757 45.9898 26.9513C45.1601 29.0442 45.6357 31.3331 46.5444 33.3166C47.487 35.3742 48.8342 37.2798 50.314 38.9847C51.9629 40.8815 53.8625 42.5448 55.9604 43.9287C56.1438 44.0498 56.3167 43.756 56.1339 43.6353Z" fill="#3F3D56"/>
</svg>
