<svg width="124" height="114" viewBox="0 0 124 114" fill="none" xmlns="http://www.w3.org/2000/svg">
<path opacity="0.1" d="M72.225 13.3723C64.4515 13.1022 57.0479 10.5947 49.9783 7.85063C42.9086 5.1066 35.9062 2.06608 28.3189 0.612437C23.4388 -0.322647 17.8573 -0.454687 13.9262 2.15971C10.1415 4.68047 8.91879 9.01979 8.26179 13.0506C7.76693 16.0827 7.47627 19.2745 8.8311 22.1122C9.77276 24.0832 11.4423 25.7397 12.5977 27.6278C16.6178 34.1962 13.776 42.2963 9.42084 48.7098C7.37898 51.7191 5.00681 54.5916 3.42977 57.7918C1.85273 60.992 1.12367 64.6639 2.50373 67.9313C3.87058 71.1722 7.12915 73.6018 10.6592 75.3123C17.8285 78.7874 26.2734 79.7813 34.5142 80.3442C52.7504 81.5914 71.0827 81.0513 89.367 80.5111C96.134 80.3106 102.93 80.1078 109.586 79.0622C113.283 78.4813 117.099 77.5606 119.784 75.3351C123.19 72.5107 124.034 67.7284 121.751 64.1861C117.922 58.2455 107.338 56.7703 104.658 50.3951C103.186 46.8853 104.698 42.9769 106.839 39.7215C111.432 32.7402 119.13 26.6147 119.535 18.6347C119.814 13.1538 116.113 7.66458 110.391 5.07059C104.394 2.35297 96.0764 2.69387 91.6539 7.19403C87.0958 11.8274 79.0892 13.61 72.225 13.3723Z" fill="#FA2BB2"/>
<path d="M27.2432 113.019L68.4247 57.6167L116.9 113.019H27.2432Z" fill="#FFA4DF"/>
<path d="M91.11 83.3582L89.3333 88.8406L82.3803 82.3179L77.0007 89.0242L70.2144 79.9412L64.6685 88.2117L59.0115 83.3582L51.0606 92.9315C51.0606 92.9315 49.8867 88.0623 48.8 83.7512L68.4247 57.4159L91.11 83.3582Z" fill="#FFC9EC"/>
<path d="M31.1809 113.018H26.798C26.0366 111.757 24.7005 109.213 25.5638 108.126C25.9565 107.633 26.3887 108.102 26.7899 108.944C26.6521 107.295 26.7899 105.72 27.7013 105.26C28.5311 104.842 28.902 106.105 29.0452 107.799C29.4534 106.835 29.9912 106.157 30.6922 106.211C31.6951 106.286 31.4536 107.97 30.8667 109.834C31.312 109.408 31.7772 109.198 32.2309 109.385C33.1789 109.777 32.2928 111.454 31.1809 113.018Z" fill="#6A279F"/>
<path d="M121.237 113.019H115.101C114.035 111.363 112.165 108.024 113.373 106.597C113.923 105.95 114.527 106.566 115.09 107.67C114.897 105.507 115.09 103.439 116.366 102.836C117.527 102.287 118.047 103.944 118.247 106.167C118.818 104.903 119.571 104.013 120.553 104.084C121.957 104.182 121.618 106.392 120.797 108.839C121.42 108.28 122.071 108.004 122.706 108.25C124.035 108.763 122.794 110.965 121.237 113.019Z" fill="#6A279F"/>
<path d="M31.4222 22.8578C31.1551 22.635 31.3705 22.2385 31.2274 22.1191L30.5597 21.5623L29.1014 23.2268L28.2436 23.5814L27.936 24.1479C27.7271 24.3029 27.7641 24.7452 27.1111 24.3653C26.7675 24.1653 26.3275 22.4281 26.8967 21.7997C27.8311 20.7682 27.1321 20.5333 27.5301 20.3526C27.9341 20.1691 27.9339 20.9362 28.799 20.6701C29.1 20.5775 29.4541 20.683 29.9652 20.8196C30.6913 21.0136 31.2744 21.0884 31.7916 21.4374C32.3089 21.7865 32.6427 22.0649 32.7052 22.2816C32.7677 22.4983 32.2988 23.2596 32.1705 23.3172C32.0422 23.3748 31.7561 23.1362 31.4222 22.8578Z" fill="black"/>
<path d="M13.6185 97.366C13.6185 92.9493 24.2585 99.1337 24.2585 99.1337C23.4924 103.194 22.1006 110.767 21.8963 111.85L23.4924 112.77H18.5763H17.8008C17.8008 112.77 14.1106 112.892 14.1106 112.77C14.0221 112.694 13.6185 101.783 13.6185 97.366Z" fill="#6A279F"/>
<path d="M47.5797 95.9143C45.9302 91.6894 56.7316 88.687 57.3709 92.9804C58.0103 97.2737 58.8338 104.728 58.9852 105.843L60.7864 106.239L56.1407 107.773L55.4078 108.015C55.4078 108.015 51.9596 109.285 51.9205 109.166C51.813 109.12 49.2293 100.139 47.5797 95.9143Z" fill="#6A279F"/>
<path d="M29.9064 26.543C30.3908 26.9357 31.5067 26.0236 32.608 25.8394C32.5739 25.8817 32.5713 28.2451 32.406 28.9244C32.2517 29.5581 31.8791 30.7894 31.6272 30.9821C31.2157 31.2967 30.2066 31.9245 28.6231 32.2312C26.6342 32.6163 23.0743 30.7428 23.0636 29.1558C23.057 28.1799 21.8984 27.4788 23.0636 26.3922C23.0636 26.3922 27.5126 25.8394 27.0537 24.3007C27.219 24.3396 27.2999 24.3288 27.5126 24.1825C27.6272 24.1037 27.7387 24.0268 27.8735 23.9147C28.0648 23.7557 28.2707 23.5363 28.2707 23.5363C28.265 23.1815 27.8665 22.9286 28.1052 22.6318C28.3802 22.29 29.0695 22.9788 29.3984 22.6852L29.8407 22.2176L30.3676 21.5627L30.5569 21.3274L31.3816 21.9959C31.3588 22.7478 31.3591 23.7671 31.3591 23.7671C31.3145 24.2445 31.2836 25.0366 30.9767 25.4181C30.7312 25.7234 30.5301 25.8581 29.9136 25.3583L29.5044 25.867C29.3846 26.0815 29.7166 26.3892 29.9064 26.543Z" fill="#6A279F"/>
<path d="M30.8363 24.4414C30.8298 24.3544 30.7708 23.5713 30.692 23.1008L30.6329 22.8914" stroke="#380A0E"/>
<path d="M37.4346 25.4911C38.2986 25.4911 40.6406 25.4911 43.8044 29.1559C46.9683 32.8207 48.8012 36.6086 48.8012 36.6086L40.0673 39.1016L39.0509 40.5112V41.6644C39.0509 41.6644 21.9966 42.4698 20.209 42.591C20.1721 42.6009 20.1335 42.6061 20.0931 42.6061C20.0192 42.6061 20.0636 42.6008 20.209 42.591C21.0672 42.3585 20.9675 39.5342 20.9675 39.5342L11.4952 39.1016L11.7867 36.7548C12.2239 33.9754 12.3715 31.8283 13.0068 30.6109C13.8962 27.9841 15.2838 26.0677 17.7615 25.491C19.4565 25.0965 22.4092 25.5817 23.4892 26.3078C23.4045 26.8204 23.2878 27.9015 23.6163 28.7425C24.4422 30.8568 25.8398 31.7538 28.1269 31.8179C30.4139 31.8819 31.368 30.647 32.0021 29.7676C32.5104 29.0629 32.5739 26.436 32.5739 25.9234C33.4633 25.0905 36.3545 25.4911 37.4345 25.4911H37.4346Z" fill="#FFA4DF"/>
<path d="M38.9948 34.3149C38.9704 34.9408 38.4814 36.435 38.4814 36.435C38.4814 36.435 41.3226 37.7418 38.7128 40.3516" stroke="black" stroke-width="2"/>
<path d="M28.7965 41.6845H39.1145C39.1145 41.6845 39.9175 45.5714 39.3152 49.5865C39.1145 50.3895 38.7465 51.2367 38.7465 51.2367C38.7465 51.2367 42.0982 54.6013 47.4901 62.6468C52.882 70.6924 53.1735 71.1312 55.0679 75.0808C56.9623 79.0305 57.5452 84.5892 57.5452 86.7835C57.5452 88.9777 57.8367 95.2679 57.8367 95.2679L48.1484 97.5669C48.1484 97.5669 46.0329 91.4645 45.4499 88.3926C44.867 85.3206 43.9927 81.371 43.9927 81.371L30.4401 75.0808L24.4653 99.6564C24.4653 99.6564 18.2818 99.5745 13.6186 99.5745C13.6186 99.5745 13.3628 95.4737 13.2171 92.548C13.2171 92.548 12.0666 60.0293 11.8674 58.8195C11.6681 57.6098 11.3167 53.4764 11.3167 53.4764C11.3167 53.4764 10.9407 48.719 12.4337 46.3197C13.6482 44.3679 15.6199 42.5999 16.9691 42.5786L28.7965 41.6845Z" fill="#FA2BB2"/>
<path d="M27.2311 21.2309C26.8421 21.3808 26.1679 21.18 26.0352 21.011C25.6092 20.4689 25.9488 19.8086 26.1306 19.5122C26.3578 19.1416 26.464 19.0535 26.8494 18.9522C27.2348 18.8508 27.6295 18.8874 28.0092 19.1184C28.3889 19.3493 28.2044 19.9393 28.1168 20.3032C28.0292 20.6671 27.973 20.945 27.2311 21.2309Z" fill="black"/>
<path d="M19.81 46.0955L18.7556 48.5091L16.5109 53.1999L17.0314 65.8475C16.8823 67.1056 16.8307 68.6581 17.0314 69.6618C17.0839 69.924 16.6681 70.465 16.5109 70.5853C16.4375 70.5959 16.4192 70.5459 16.4335 70.4674C16.3175 70.5677 16.1804 70.6518 16.1029 70.5853C16.0835 70.5687 16.0422 70.433 15.9633 70.3705C15.9273 70.342 15.9069 70.2954 15.8849 70.2499L15.8238 70.1557C15.7221 70.0599 15.5971 70.0006 15.6755 69.8323C15.8596 69.4375 15.6642 69.0009 15.5163 68.6733C15.1429 67.8463 14.2481 66.254 14.2481 66.254C14.2481 66.254 13.401 64.5991 12.9415 63.4992C11.5873 60.2572 11.2374 56.4487 10.6424 54.7537C10.0474 53.0587 10.3075 49.3199 10.474 46.4185C10.6424 43.484 11.2039 39.9731 11.4954 38.7279L21.9014 38.728L20.978 42.6497L19.81 46.0955Z" fill="#6A279F"/>
<path d="M36.103 56.6128L34.2112 58.6815C32.7951 65.8183 31.1897 73.5522 29.5362 78.89C27.8827 84.2279 25.7391 93.3474 24.0578 99.5745" stroke="black" stroke-width="2"/>
<path d="M21.1352 42.3054L22.8052 35.1458" stroke="black" stroke-width="2"/>
<path d="M48.8017 36.6083L50.1144 38.5925L50.7212 39.678L51.2274 40.6128L65.2687 45.8245C66.3874 46.3232 67.5668 45.9971 68.1832 46.4096C68.2893 46.4806 68.9889 46.7743 68.9889 47.0558C68.9889 47.1454 68.9102 47.3337 68.7661 47.4336C68.7462 47.4474 68.6971 47.6683 68.6204 47.7262L68.5653 47.7816C68.5394 47.8136 68.5172 47.846 68.4747 47.8725C68.3619 47.9427 68.4747 48.0188 68.2831 47.9453C68.0916 47.8719 67.517 47.721 67.1802 47.77C66.3298 47.8935 63.8114 48.2997 63.8114 48.2997L59.1482 48.8965L53.2114 48.4987C51.5101 48.5889 47.3753 48.2175 45.1585 46.4095C42.8268 44.508 40.3496 40.9971 40.0581 39.0953L48.8017 36.6083Z" fill="#6A279F"/>
<path d="M67.6006 46.4094C67.3091 46.5558 67.0177 47.2872 67.4549 47.58C67.8917 47.8726 68.183 47.8726 68.4742 47.8726H68.4749C68.7664 47.8726 68.4749 47.434 68.7664 46.9949C69.0578 46.5557 68.6207 46.431 68.4749 46.4097C68.3292 46.3884 67.892 46.2631 67.6006 46.4094Z" fill="#7B242D" stroke="#7B242D"/>
<path d="M68.4228 31.5324H67.9072V57.654H68.4228V31.5324Z" fill="#FA2BB2"/>
<path d="M68.4229 31.4789C68.4229 31.4789 74.0463 28.7886 77.9465 33.4749C81.8468 38.1612 86.6858 35.672 86.6858 35.672C86.6858 35.672 83.1467 41.0907 76.502 40.2768C69.8573 39.4629 68.4229 42.7863 68.4229 42.7863" fill="#FA2BB2"/>
<path d="M68.7232 47.9747C68.6909 47.9947 68.6558 48.0093 68.6192 48.018C68.4279 48.031 67.9491 48.0191 67.892 47.8723C67.799 47.6327 68.0067 46.6715 68.1533 46.3971C68.2909 46.1405 68.7802 46.3276 68.8449 46.3501C68.8468 46.3512 68.8488 46.3521 68.8509 46.3528C68.9834 46.4127 69.0654 46.487 69.0573 46.5822C69.0573 46.5822 68.9636 47.8161 68.7232 47.9747Z" fill="#9F2733"/>
<path d="M69.0579 46.8487L68.6326 46.7024L68.0802 46.7024M68.9766 47.2875L68.475 47.1413L67.9446 47.1743M68.7664 47.7263L68.3293 47.58L67.8921 47.58" stroke="#380A0E" stroke-width="0.25"/>
<path d="M68.4247 46.5751C68.2239 46.3744 67.8224 46.3744 67.6217 46.1736L67.4209 46.5751L68.2239 46.9766C68.5451 47.1372 68.7509 46.9014 68.4247 46.5751Z" fill="#7B242D"/>
</svg>
