<svg width="101" height="111" viewBox="0 0 101 111" fill="none" xmlns="http://www.w3.org/2000/svg">
<path d="M45.5649 11.6633C46.0052 11.5705 46.442 11.4727 46.8755 11.3698C57.5574 8.90806 69.7724 7.48112 79.0349 11.8227C88.1152 16.0757 86.9995 25.0902 81.6889 33.3685C72.5985 47.5368 38.1721 60.9815 28.8818 46.5754C25.8787 41.9201 31.0551 33.7228 27.3309 28.2351C23.0905 21.9859 3.46752 25.9378 7.38909 12.1313C9.5624 4.47543 15.1386 4.92577 21.1298 7.41028C24.5681 8.83469 27.8521 10.6083 31.4093 11.8126C35.7281 13.2775 40.768 12.6905 45.5649 11.6633Z" fill="#F2EDF1"/>
<path opacity="0.9" d="M45.5649 11.6633C46.0052 11.5705 46.442 11.4727 46.8755 11.3698C57.5574 8.90806 69.7724 7.48112 79.0349 11.8227C88.1152 16.0757 86.9995 25.0902 81.6889 33.3685C72.5985 47.5368 38.1721 60.9815 28.8818 46.5754C25.8787 41.9201 31.0551 33.7228 27.3309 28.2351C23.0905 21.9859 3.46752 25.9378 7.38909 12.1313C9.5624 4.47543 15.1386 4.92577 21.1298 7.41028C24.5681 8.83469 27.8521 10.6083 31.4093 11.8126C35.7281 13.2775 40.768 12.6905 45.5649 11.6633Z" fill="#F2DDEB"/>
<path d="M75.1448 51.2897C75.1448 52.5659 73.6683 54.1141 71.871 53.6006C70.202 53.6006 69.4958 51.6031 69.4958 50.3268C69.4958 49.0505 71.0728 48.2726 72.3845 48.2726C73.6962 48.2726 75.1448 50.0134 75.1448 51.2897Z" fill="#E85EFF"/>
<path d="M71.4215 52.5093C71.4215 53.7856 70.3944 55.6548 68.597 55.1412C66.928 55.1412 66.1577 53.7856 66.1577 52.5093C66.1577 51.233 67.2853 50.2626 68.597 50.2626C69.9088 50.2626 71.4215 51.233 71.4215 52.5093Z" fill="#FFA4DF"/>
<path d="M82.3984 51.8674C82.3984 53.1437 81.1145 55.0128 79.3171 54.4993C78.0054 54.4993 76.942 53.4647 76.942 52.1884C76.942 50.9121 78.0054 49.8774 79.3171 49.8774C80.6289 49.8774 82.3984 50.5911 82.3984 51.8674Z" fill="#FA2BB2"/>
<path d="M78.6751 51.4822C78.6751 52.7585 77.6481 54.6276 75.8507 54.1141C74.1817 54.1141 73.4114 52.7585 73.4114 51.4822C73.4114 50.2059 74.5389 49.2355 75.8507 49.2355C77.1624 49.2355 78.6751 50.2059 78.6751 51.4822Z" fill="#52068D"/>
<path d="M85.8648 52.6377C85.8648 53.914 84.5809 55.7831 82.7836 55.2696C81.4718 55.2696 80.4084 54.2349 80.4084 52.9586C80.4084 51.6823 81.4718 50.6477 82.7836 50.6477C84.0953 50.6477 85.8648 51.3614 85.8648 52.6377Z" fill="#E85EFF"/>
<path d="M64.1678 56.3164C64.4246 58.3705 63.7185 59.847 61.2792 59.4618C59.9675 59.4618 59.4818 57.8298 59.4818 56.5535C59.4818 55.2772 60.5452 54.2426 61.8569 54.2426C63.1687 54.2426 64.1678 55.0401 64.1678 56.3164Z" fill="#FA2BB2"/>
<path d="M72.1276 55.0128C72.3843 57.067 71.7424 57.9656 69.3031 57.5805C67.9914 57.5805 66.928 56.5459 66.928 55.2696C66.928 53.9933 67.9914 52.9586 69.3031 52.9586C70.6148 52.9586 72.1276 53.7365 72.1276 55.0128Z" fill="#EC25E4"/>
<path d="M67.8267 55.4621C68.0834 57.5163 67.3773 58.9927 64.938 58.6076C63.6263 58.6076 63.1406 56.9755 63.1406 55.6992C63.1406 54.4229 64.204 53.3883 65.5157 53.3883C66.8275 53.3883 67.8267 54.1859 67.8267 55.4621Z" fill="#7F00AC"/>
<path d="M79.574 55.1412C79.8307 57.1953 79.1888 58.094 76.7495 57.7089C75.4378 57.7089 74.3744 56.6742 74.3744 55.398C74.3744 54.1217 75.4378 53.087 76.7495 53.087C78.0612 53.087 79.574 53.8649 79.574 55.1412Z" fill="#FFA4DF"/>
<path d="M75.7223 55.0128C75.9791 57.067 75.3371 57.9656 72.8978 57.5805C71.5861 57.5805 70.5227 56.5459 70.5227 55.2696C70.5227 53.9933 71.5861 52.9586 72.8978 52.9586C74.2096 52.9586 75.7223 53.7365 75.7223 55.0128Z" fill="#52068D"/>
<circle cx="90.2298" cy="56.1041" r="2.24673" fill="#7F00AC"/>
<circle cx="75.7223" cy="58.8002" r="2.24673" fill="#7F00AC"/>
<circle cx="10.4388" cy="107.522" r="2.69608" fill="#7F00AC"/>
<path d="M91.1927 58.8002C91.1927 60.041 90.1868 61.0469 88.946 61.0469C87.7052 61.0469 86.5067 60.4262 86.5067 59.1853C85.7364 57.3879 87.7052 56.5534 88.946 56.5534C90.1868 56.5534 91.1927 57.5593 91.1927 58.8002Z" fill="#EC25E4"/>
<path d="M88.8177 55.077C88.8177 56.3533 88.0473 58.094 86.25 57.5805C83.8748 57.5805 83.7465 56.8744 83.8748 55.2696C83.8748 53.9933 84.9382 52.9586 86.25 52.9586C87.5617 52.9586 88.8177 53.8007 88.8177 55.077Z" fill="#FFA4DF"/>
<path d="M83.9391 55.398C84.1958 57.4521 83.5539 58.3508 81.1146 57.9657C79.8029 57.9657 78.7395 56.931 78.7395 55.6547C78.7395 54.3784 79.8029 53.3438 81.1146 53.3438C82.4264 53.3438 83.9391 54.1217 83.9391 55.398Z" fill="#7F00AC"/>
<circle cx="93.1827" cy="58.8001" r="2.5035" fill="#52068D"/>
<path d="M56.7216 58.5434C56.7216 59.7488 55.3593 60.9827 54.1539 60.9827C52.9485 60.9827 51.9713 59.9556 51.9713 58.6718C51.9713 57.4664 53.2694 56.5534 54.4748 56.5534C55.6802 56.5534 56.7216 57.338 56.7216 58.5434Z" fill="#7F00AC"/>
<circle cx="84.7093" cy="58.8002" r="2.24673" fill="#52068D"/>
<path d="M82.7834 59.1211C82.7834 60.5037 81.47 61.3036 80.0874 61.3036C78.7047 61.3036 77.5839 60.1828 77.5839 58.8001C77.5839 57.4175 78.7047 56.2966 80.0874 56.2966C81.47 56.2966 82.7834 57.7384 82.7834 59.1211Z" fill="#E85EFF"/>
<path d="M74.3743 58.8002C74.3743 60.041 73.3684 61.0469 72.1276 61.0469C70.8868 61.0469 69.8809 60.041 69.8809 58.8002C69.3673 57.1954 70.8868 56.5534 72.1276 56.5534C73.3684 56.5534 74.3743 57.5593 74.3743 58.8002Z" fill="#7F00AC"/>
<circle cx="67.5058" cy="59.4421" r="3.01704" fill="#52068D"/>
<path d="M64.6813 59.2495C64.6813 60.384 63.4406 61.0469 62.3062 61.0469C61.1717 61.0469 59.9952 60.384 59.9952 59.2495C59.9952 58.115 61.1717 56.9386 62.3062 56.9386C63.4406 56.9386 65.0664 57.7731 64.6813 59.2495Z" fill="#FA2BB2"/>
<path d="M60.5088 58.4792C60.5088 59.6846 59.5317 60.6617 58.3263 60.6617C57.1209 60.6617 56.0154 60.1339 56.0154 58.9285C56.0154 57.7231 57.1209 56.2966 58.3263 56.2966C59.5317 56.2966 60.5088 57.2738 60.5088 58.4792Z" fill="#52068D"/>
<path d="M97.3548 59.763H79.7661V110.218H97.3548V59.763Z" fill="#FFC9EC"/>
<path d="M51.1365 59.763H79.7662V110.218H51.1365V59.763Z" fill="#FFA4DF"/>
<path d="M73.7321 61.8172V59.763H66.4142V61.8172H73.7321Z" fill="white"/>
<circle cx="97.9327" cy="107.715" r="2.63188" fill="#6A279F"/>
<circle cx="93.8244" cy="107.715" r="2.5035" fill="#FA2BB2"/>
<path d="M31.6864 16.2146C31.3269 16.2146 31.237 15.7653 31.0444 15.7653H30.1458L30.0816 18.012L29.6322 18.8465L29.7606 19.4884C29.6964 19.7452 30.0173 20.0661 29.247 20.1945C28.8416 20.2621 27.3463 19.1933 27.3854 18.3329C27.4496 16.9207 26.7383 17.1922 26.9361 16.7923C27.1369 16.3865 27.6422 16.9849 28.1558 16.2146C28.3344 15.9467 28.6859 15.7986 29.1829 15.5727C29.889 15.2517 30.4025 14.9308 31.0444 14.8666C31.6864 14.8024 32.1357 14.8024 32.3283 14.9308C32.5209 15.0591 32.6492 15.9578 32.585 16.0862C32.5208 16.2146 32.1357 16.2146 31.6864 16.2146Z" fill="black"/>
<path d="M24.6428 93.9869H35.3629C34.8959 97.7389 33.4965 105.699 33.2911 106.983C33.0857 108.266 32.9022 109.051 32.9878 109.072L34.5926 110.163H29.6498L29.3754 109.679C29.3754 109.679 24.6428 102.542 24.6428 102.396C24.5539 102.307 24.6428 93.9869 24.6428 93.9869Z" fill="#6A279F"/>
<path d="M2.81753 43.9457H9.49353C9.49353 44.9086 9.56861 44.9003 10.007 45.4863C10.6313 46.3208 13.3237 49.1025 14.7573 50.5575L6.0913 59.0309C3.99435 53.4676 -0.135314 42.7261 0.185645 42.7261C0.843295 42.7261 2.2612 43.6676 2.81753 43.9457Z" fill="#6A279F"/>
<path d="M53.0624 3.92502C52.9597 3.20607 52.5978 2.47681 52.5978 2.3244C52.5978 2.19184 52.7982 2.06928 53.055 2.17198C53.3118 2.27469 53.5122 2.93405 53.7043 3.15472C53.8969 3.12169 53.8171 2.47681 53.8969 2.19183C54.2743 2.17199 54.282 3.09053 54.282 3.92502C54.282 5.59402 55.1246 4.96382 55.1888 4.00093C55.3412 3.69611 55.4117 3.77353 55.5017 3.86083C55.646 4.00093 55.5231 5.08048 55.3733 5.52983C55.2235 5.97918 54.7956 6.87787 53.0624 8.41849L54.7955 12.7836L59.7384 24.2098C60.3161 25.4936 60.4445 28.2539 59.7384 29.0884C58.443 30.6193 52.613 32.3269 48.5689 32.7762L47.3492 19.5526L48.8257 19.6521L48.2479 7.13464C48.2479 7.13464 47.8284 4.33792 48.3121 5.27306C49.275 7.13464 50.1677 7.75065 51.5859 6.87787C53.2549 5.85079 53.1874 4.80061 53.0624 3.92502Z" fill="#6A279F"/>
<path d="M33.2269 21.029C33.933 21.029 35.0243 20.1945 35.9872 19.7452V21.2216C35.9872 22.0433 35.6876 22.9762 35.602 23.34C35.4522 23.8107 34.6391 25.1887 32.8417 25.6509C30.595 26.2286 28.5408 25.0732 27.5137 24.1103C26.6921 23.34 26.4225 21.9919 26.6793 20.1304C26.6793 20.1304 27.5956 20.6792 28.1091 20.936C28.4943 21.1286 28.6429 21.0932 29.1186 21.0932C29.3106 21.0932 29.3555 20.9369 29.4388 20.6464L29.4396 20.6439C29.4847 20.4865 29.5285 20.3333 29.5679 20.1304C29.6238 19.8425 29.6498 19.4884 29.6498 19.4884C29.393 19.1675 28.8618 19.2317 28.8618 18.7823C28.8618 18.2648 29.9589 18.384 30.0406 17.8705L30.0991 17.1133V16.1216V15.7653H31.3011C31.8147 16.4714 32.5384 17.4054 32.5384 17.4054C32.8379 17.8762 33.3729 18.6251 33.3729 19.2028C33.3729 19.665 33.2911 19.9378 32.3924 19.9378V20.7081C32.439 20.9937 32.9504 21.029 33.2269 21.029Z" fill="#6A279F"/>
<path d="M31.5649 17.0702C31.6291 17.1344 32.2069 17.7121 32.592 18.0331L32.7846 18.1615" stroke="#380A0E"/>
<path d="M41.575 18.8026C42.448 18.8026 45.8942 19.3173 47.4134 19.5526L48.5719 32.7966L43.4976 32.9688L42.4706 34.3811V35.5365C42.4706 35.5365 32.2671 35.5568 31.8178 35.5568C31.561 34.6581 30.3413 30.7424 30.3413 30.7424H29.5711L18.7867 33.952L16.1548 28.6882C15.0636 26.5057 14.9352 23.6812 15.5771 22.4616C16.4758 19.8297 19.1077 18.4817 21.2902 18.2249C23.0363 18.0195 25.6553 19.4232 26.7466 20.1507C26.661 20.6642 26.543 21.7474 26.875 22.59C27.7095 24.7083 29.1217 25.607 31.4326 25.6712C33.7435 25.7354 34.7075 24.4981 35.3483 23.6171C35.8619 22.9109 35.926 20.2791 35.926 19.7655C36.8247 18.931 40.4837 18.8026 41.575 18.8026Z" fill="#FFA4DF"/>
<path d="M42.599 28.1804C42.5776 28.8437 42.1497 30.4271 42.1497 30.4271C42.1497 30.4271 43.8187 31.069 43.7545 32.8664" stroke="black" stroke-width="2"/>
<path d="M30.2099 30.1062L28.5409 25.4843" stroke="black" stroke-width="2"/>
<path d="M31.9432 35.5365H42.4708C42.4708 35.9217 42.612 37.5008 42.4066 42.0199C42.2012 46.5391 40.1347 61.2273 39.2788 67.9889L35.3631 94.051H24.643L24.8821 78.8374H22.1395C14.7959 76.7319 8.33814 64.6937 6.02722 58.9378L14.1155 50.978L14.6755 50.4291L14.8039 49.7872C14.8039 49.2737 14.4792 48.6658 14.3545 47.2195C14.0336 43.4963 13.6484 42.4693 14.6113 39.709C15.3816 37.5008 18.5698 36.4566 19.9393 36.4352L31.9432 35.5365Z" fill="#FA2BB2"/>
<path d="M14.7396 50.5193H15.3174V52.1883" stroke="black" stroke-width="2"/>
<path d="M25.4683 15.2412C25.7731 14.9364 26.4867 14.8498 26.6792 14.9568C27.2972 15.3001 27.2441 16.0738 27.1928 16.4332C27.1286 16.8826 27.0644 17.011 26.7434 17.2677C26.4225 17.5245 26.0373 17.6529 25.588 17.5887C25.1387 17.5245 25.0744 16.8826 25.0102 16.4974C24.9461 16.1123 24.887 15.8225 25.4683 15.2412Z" fill="black"/>
<path d="M30.4026 29.9518L31.7506 34.5095L32.0716 35.8575L32.3283 37.013L47.3493 46.706C48.5048 47.6047 50.6964 47.3983 51.5309 47.5909C51.7818 47.6488 52.4281 47.8293 52.4454 48.0481C52.293 48.3529 51.6497 48.0481 51.2261 48.0481C50.8026 48.0481 50.5478 48.2692 50.4641 48.3529C50.3803 48.4367 50.3117 48.5053 50.6165 48.8102C50.7131 48.9068 50.8824 48.8358 51.2261 49.7246C51.2624 49.8184 51.2841 50.4291 51.0737 50.4867C51.0446 50.4947 50.8826 50.4511 50.7689 50.4867C50.717 50.5029 50.6574 50.4938 50.5977 50.4867H50.4641C50.3023 50.5233 50.1618 50.6037 50.0454 50.4291C49.7723 50.0196 49.2102 49.9374 48.7875 49.8771C47.7206 49.7246 45.5519 49.5946 45.5519 49.5946L41.9572 49.1453L31.7506 45.9999C29.675 45.5291 25.0874 43.8944 23.3414 41.1213C21.5954 38.3482 19.4043 34.8304 18.527 33.4182L30.4026 29.9518Z" fill="#6A279F"/>
<path d="M32.1998 19.8996V20.6699" stroke="#380A0E"/>
<path d="M35.2811 50.3268L34.0614 51.1613C34.7247 59.0141 33.8688 75.58 25.1387 79.0207" stroke="black" stroke-width="2"/>
<path d="M51.0737 50.3343L50.7688 49.5722L50.3116 49.115M50.7688 50.3343L50.6164 49.8771L50.0068 49.4198M50.464 50.3343L50.3116 50.0295L49.8544 49.7246" stroke="#380A0E" stroke-width="0.25"/>
<path d="M54.4268 5.02962C54.1219 6.40133 52.7502 7.01098 52.1406 7.16339C51.2534 7.38518 49.8544 7.46821 49.5496 8.68751" stroke="#380A0E"/>
<path d="M53.594 4.76566C53.594 6.21921 52.4156 7.39754 50.9621 7.39754C49.5085 7.39754 48.3302 6.21921 48.3302 4.76566C48.3302 3.09666 49.0363 2.13377 50.9621 2.13377C52.4156 2.13377 53.594 3.31211 53.594 4.76566Z" fill="#7F00AC"/>
<path d="M85.9287 78.3787V77.9936H86.3138V78.7639H79.3169C79.3169 78.7639 79.0601 79.9194 77.9688 80.1119H68.7893C68.7893 80.1119 60.8295 91.5382 56.4002 97.7648C56.2076 97.9574 56.2076 98.2784 56.2076 98.5351C56.2076 98.7919 56.4644 99.2412 56.4644 99.2412L57.4915 101.231C60.3801 101.188 66.8892 101.231 69.5596 101.231C71.7422 101.231 73.9247 103.478 74.5024 105.019H73.8605C73.2443 103.067 70.7151 101.809 69.5596 101.681H57.6841L59.674 105.019H58.9679C58.9679 105.019 57.8766 103.285 57.2989 102.772C56.9804 102.489 56.561 102.245 56.2076 102.066C55.8754 101.897 55.2323 101.681 54.8596 101.681H42.8556L42.5347 101.231H55.3089C56.2718 101.231 57.4915 102.258 57.4915 102.258C57.4915 102.258 56.5928 100.461 56.0151 99.2412C55.907 99.0131 55.7983 98.6509 55.7983 98.4583C55.7983 98.2658 55.7583 98.0858 55.9509 97.7648C61.0588 90.103 68.34 80.1119 68.34 80.1119C68.34 80.1119 67.8093 79.7974 67.6339 79.5342C67.4584 79.271 67.4413 78.7639 67.4413 78.7639H64.1033V78.3787H78.9317H85.9287Z" fill="black"/>
<path d="M86.1212 77.6084H64.2317V77.9936H86.4422L90.9357 65.5403L91.1282 63.8713H49.1465V64.3206H77.3911L77.8404 65.1551H83.1684L83.6819 64.3206H88.1754L88.4322 65.1551H90.3579L90.5505 65.5403L86.1212 77.6084Z" fill="black"/>
<path d="M39.3253 49.1071H56.0795L60.3161 52.3809V53.1512L71.3572 77.4801H70.4585L59.6742 53.6647L58.583 53.1512L55.6301 50.5193H54.2179V50.0057L41.9571 50.1983V50.6477C41.9571 50.6477 43.4978 51.8031 44.2039 52.3167C44.2681 52.6376 44.2681 53.1512 44.2681 53.1512L55.5017 77.6084H64.3603C64.4031 77.9294 64.463 78.6227 64.3603 78.8281C64.0714 79.4058 63.5258 79.791 63.0122 79.9836H54.1537L41.7646 97.5722C41.7646 97.5722 41.572 97.829 41.572 98.4067C41.572 98.9203 41.7646 99.2412 41.7646 99.2412L44.589 104.89L85.4153 104.954V105.275L80.6651 105.267C80.6651 105.267 81.7564 107.073 82.3341 107.971C83.0402 107.971 83.6821 108.357 83.6821 109.063C83.6821 110.026 83.1686 110.282 82.5267 110.282C81.7564 110.282 81.1786 109.897 81.1786 109.191C81.1786 108.036 82.0131 107.971 82.0131 107.971L80.4083 105.267L70.9721 105.251C70.9721 105.251 71.8708 107.009 72.4485 107.971C72.962 107.907 73.6681 108.251 73.6681 108.998C73.6681 109.64 73.604 110.347 72.5769 110.347C71.6782 110.347 71.4139 109.692 71.4214 108.998C71.4293 108.267 72.0633 108.036 72.0633 108.036L70.5869 105.251L56.4004 105.227C56.4004 105.227 57.3633 107.073 57.8126 107.971C58.262 107.971 59.1607 108.099 59.1607 109.127C59.1607 109.833 58.9039 110.347 57.8768 110.347C57.2991 110.347 56.6572 110.026 56.6572 109.127C56.6572 108.228 57.4275 107.971 57.4275 107.971L56.0153 105.227L46.5148 105.211C46.9214 106.152 47.8628 107.586 48.1196 108.036C48.8257 108.036 49.2109 108.357 49.2109 109.127C49.2109 109.897 48.8257 110.282 48.1196 110.282C47.7345 110.282 47.0283 110.09 47.0283 109.127C47.0283 108.357 47.4135 108.207 47.6703 108.036L46.0655 105.211H44.2681L41.1868 99.0487C41.1868 99.0487 41.0585 98.7277 41.0585 98.3425C41.0585 97.9574 41.1868 97.7006 41.1868 97.7006L53.3834 80.3045V79.9836H52.934C52.934 79.9836 52.4847 79.791 52.4847 79.0849C52.4847 78.1862 52.934 77.9294 52.934 77.9294H54.3463V77.4801L48.569 64.7058L43.8187 53.6647C43.8187 53.6647 42.6633 53.1833 42.4065 52.9586C42.1497 52.7339 40.1598 50.6477 40.1598 50.6477H38.0414C38.0414 50.6477 37.7205 50.1983 37.7205 49.749C37.7205 49.3638 38.555 49.2354 38.555 49.2354L39.3253 49.1071Z" fill="#0C0A05"/>
<path d="M76.364 77.6726L80.8575 65.1551H81.2426L76.8134 77.6726H76.364Z" fill="black"/>
<path d="M89.5234 69.2634H51.3932V69.6486H89.2019L89.5234 69.2634Z" fill="#0C0A05"/>
<path d="M87.8546 73.6286H53.1908V74.0137H87.5624L87.8546 73.6286Z" fill="#0C0A05"/>
<path d="M70.2657 48.6578C69.7168 48.2138 69.1102 48.08 68.6609 48.1442C68.4054 48.1807 68.0831 48.4652 68.0831 48.4652L68.8534 48.722L70.9076 49.2355C70.9076 49.2355 70.5004 48.8476 70.2657 48.6578Z" fill="#527576"/>
<path d="M84.7092 49.8774C85.0943 49.749 85.7363 49.749 85.7363 49.749L86.5708 49.6848C86.314 49.9416 86.0572 50.3267 85.8005 50.4551C85.6348 50.5379 84.324 51.1184 83.5537 51.2896C83.4681 51.3538 83.374 51.3538 83.6821 50.8403C83.9902 50.3267 84.324 50.0058 84.7092 49.8774Z" fill="#527576"/>
<path d="M49.1465 1.60481L50.4304 0C50.3876 0.299564 50.2892 0.924369 50.2378 1.02708C50.1865 1.12978 49.7029 1.6262 49.4675 1.86158L49.8543 2.74342L49.5494 2.89583L49.0922 1.98136L48.4825 1.67654L48.7614 1.60481H49.1465Z" fill="#7A9592"/>
</svg>
