<svg width="290" height="133" viewBox="0 0 290 133" fill="none" xmlns="http://www.w3.org/2000/svg">
<path d="M268.576 6.09925C257.096 65.2355 206.302 109.753 145.348 109.753C84.5601 109.753 33.8482 65.4833 22.2026 6.59481C105.043 -1.1689 185.736 -1.33408 268.576 6.09925Z" fill="#7F00AC"/>
<path d="M289.968 8.41183C277.579 78.9459 217.534 132.383 145.348 132.383C73.4099 132.383 13.4477 79.1937 0.811035 8.98998C9.07029 8.08146 17.3296 7.25553 25.5888 6.42961C36.9866 63.6663 86.2944 106.78 145.348 106.78C204.65 106.78 254.04 63.4185 265.19 5.93405C273.449 6.67738 281.708 7.50331 289.968 8.41183Z" fill="#EBEBEB"/>
</svg>
